<mxfile host="65bd71144e">
    <diagram id="Biwk6ePuDVdM9Z3wOTHR" name="Page-1">
        <mxGraphModel dx="2158" dy="1210" grid="1" gridSize="10" guides="1" tooltips="1" connect="1" arrows="1" fold="1" page="1" pageScale="1" pageWidth="1169" pageHeight="827" math="0" shadow="0">
            <root>
                <mxCell id="0"/>
                <mxCell id="1" parent="0"/>
                <mxCell id="12" value="" style="endArrow=classic;html=1;" edge="1" parent="1">
                    <mxGeometry width="50" height="50" relative="1" as="geometry">
                        <mxPoint x="869.7" y="503.5" as="sourcePoint"/>
                        <mxPoint x="869.7" y="547.5" as="targetPoint"/>
                    </mxGeometry>
                </mxCell>
                <mxCell id="24" value="" style="group" vertex="1" connectable="0" parent="1">
                    <mxGeometry x="690" y="339" width="342" height="150" as="geometry"/>
                </mxCell>
                <mxCell id="2" value="leRobot&lt;br&gt;Diffucion&lt;div&gt;model&lt;/div&gt;" style="rounded=1;whiteSpace=wrap;html=1;fillColor=#f5f5f5;fontColor=#333333;strokeColor=#666666;" vertex="1" parent="24">
                    <mxGeometry x="202" y="45" width="120" height="60" as="geometry"/>
                </mxCell>
                <mxCell id="3" value="" style="shape=flexArrow;endArrow=classic;html=1;" edge="1" parent="24">
                    <mxGeometry width="50" height="50" relative="1" as="geometry">
                        <mxPoint x="147" y="74.47000000000003" as="sourcePoint"/>
                        <mxPoint x="187" y="74.47000000000003" as="targetPoint"/>
                    </mxGeometry>
                </mxCell>
                <mxCell id="9" value="" style="group" vertex="1" connectable="0" parent="24">
                    <mxGeometry x="52" y="15" width="84" height="120" as="geometry"/>
                </mxCell>
                <mxCell id="5" value="Dataset" style="rounded=0;whiteSpace=wrap;html=1;" vertex="1" parent="9">
                    <mxGeometry x="14" y="30" width="50" height="70" as="geometry"/>
                </mxCell>
                <mxCell id="6" value="Dataset" style="rounded=0;whiteSpace=wrap;html=1;" vertex="1" parent="9">
                    <mxGeometry x="24" y="40" width="50" height="70" as="geometry"/>
                </mxCell>
                <mxCell id="7" value="Dataset" style="rounded=0;whiteSpace=wrap;html=1;" vertex="1" parent="9">
                    <mxGeometry x="34" y="50" width="50" height="70" as="geometry"/>
                </mxCell>
                <mxCell id="8" value="50 episodes" style="text;html=1;align=center;verticalAlign=middle;whiteSpace=wrap;rounded=0;" vertex="1" parent="9">
                    <mxGeometry width="74" height="21" as="geometry"/>
                </mxCell>
                <mxCell id="23" value="Training" style="swimlane;horizontal=0;whiteSpace=wrap;html=1;startSize=40;" vertex="1" parent="24">
                    <mxGeometry width="342" height="150" as="geometry">
                        <mxRectangle width="40" height="140" as="alternateBounds"/>
                    </mxGeometry>
                </mxCell>
                <mxCell id="25" value="" style="group" vertex="1" connectable="0" parent="1">
                    <mxGeometry x="621" y="570" width="480" height="135" as="geometry"/>
                </mxCell>
                <mxCell id="11" value="trained model" style="rounded=1;whiteSpace=wrap;html=1;fillColor=#ffe6cc;strokeColor=#d79b00;" vertex="1" parent="25">
                    <mxGeometry x="170" y="10" width="120" height="60" as="geometry"/>
                </mxCell>
                <mxCell id="13" value="" style="shape=flexArrow;endArrow=classic;html=1;" edge="1" parent="25">
                    <mxGeometry width="50" height="50" relative="1" as="geometry">
                        <mxPoint x="115" y="39.47000000000003" as="sourcePoint"/>
                        <mxPoint x="155" y="39.47000000000003" as="targetPoint"/>
                    </mxGeometry>
                </mxCell>
                <mxCell id="16" value="" style="shape=flexArrow;endArrow=classic;html=1;" edge="1" parent="25">
                    <mxGeometry width="50" height="50" relative="1" as="geometry">
                        <mxPoint x="310" y="39.82000000000005" as="sourcePoint"/>
                        <mxPoint x="350" y="39.82000000000005" as="targetPoint"/>
                    </mxGeometry>
                </mxCell>
                <mxCell id="17" value="evaluate&amp;nbsp;&lt;br&gt;&lt;b&gt;sucess rate&lt;/b&gt;" style="rounded=0;whiteSpace=wrap;html=1;fillColor=#d5e8d4;strokeColor=#82b366;" vertex="1" parent="25">
                    <mxGeometry x="360" y="15" width="98" height="50" as="geometry"/>
                </mxCell>
                <mxCell id="18" value="" style="group" vertex="1" connectable="0" parent="25">
                    <mxGeometry x="50" width="68" height="60" as="geometry"/>
                </mxCell>
                <mxCell id="14" value="" style="shape=actor;whiteSpace=wrap;html=1;" vertex="1" parent="18">
                    <mxGeometry x="24" y="30" width="20" height="30" as="geometry"/>
                </mxCell>
                <mxCell id="15" value="30 prompts" style="text;html=1;align=center;verticalAlign=middle;whiteSpace=wrap;rounded=0;" vertex="1" parent="18">
                    <mxGeometry width="68" height="30" as="geometry"/>
                </mxCell>
                <mxCell id="22" value="Testing &amp;amp; Evulation" style="swimlane;horizontal=0;whiteSpace=wrap;html=1;startSize=40;" vertex="1" parent="25">
                    <mxGeometry y="-5" width="480" height="90" as="geometry">
                        <mxRectangle y="-5" width="40" height="140" as="alternateBounds"/>
                    </mxGeometry>
                </mxCell>
                <mxCell id="28" value="" style="group" vertex="1" connectable="0" parent="1">
                    <mxGeometry x="671" y="80" width="380" height="160" as="geometry"/>
                </mxCell>
                <mxCell id="36" value="Dataset Generation" style="swimlane;horizontal=0;whiteSpace=wrap;html=1;startSize=40;" vertex="1" parent="28">
                    <mxGeometry width="380" height="160.89385474860333" as="geometry">
                        <mxRectangle width="40" height="140" as="alternateBounds"/>
                    </mxGeometry>
                </mxCell>
                <mxCell id="54" value="Dataset" style="rounded=0;whiteSpace=wrap;html=1;fillColor=#647687;fontColor=#ffffff;strokeColor=#314354;" vertex="1" parent="36">
                    <mxGeometry x="69" y="16.223463687150833" width="50" height="62.569832402234624" as="geometry"/>
                </mxCell>
                <mxCell id="55" value="Dataset" style="rounded=0;whiteSpace=wrap;html=1;fillColor=#647687;fontColor=#ffffff;strokeColor=#314354;" vertex="1" parent="36">
                    <mxGeometry x="79" y="25.162011173184347" width="50" height="62.569832402234624" as="geometry"/>
                </mxCell>
                <mxCell id="56" value="Dataset" style="rounded=0;whiteSpace=wrap;html=1;fillColor=#647687;fontColor=#ffffff;strokeColor=#314354;" vertex="1" parent="36">
                    <mxGeometry x="89" y="34.10055865921787" width="50" height="62.569832402234624" as="geometry"/>
                </mxCell>
                <mxCell id="60" value="Dataset" style="rounded=0;whiteSpace=wrap;html=1;fillColor=#e3c800;fontColor=#000000;strokeColor=#B09500;" vertex="1" parent="36">
                    <mxGeometry x="289" y="16.223463687150833" width="50" height="62.569832402234624" as="geometry"/>
                </mxCell>
                <mxCell id="61" value="Dataset" style="rounded=0;whiteSpace=wrap;html=1;fillColor=#e3c800;fontColor=#000000;strokeColor=#B09500;" vertex="1" parent="36">
                    <mxGeometry x="299" y="25.162011173184347" width="50" height="62.569832402234624" as="geometry"/>
                </mxCell>
                <mxCell id="62" value="Dataset" style="rounded=0;whiteSpace=wrap;html=1;fillColor=#e3c800;fontColor=#000000;strokeColor=#B09500;" vertex="1" parent="36">
                    <mxGeometry x="309" y="34.10055865921787" width="50" height="62.569832402234624" as="geometry"/>
                </mxCell>
                <mxCell id="63" value="Enrich with high&amp;nbsp;&lt;div&gt;level features&lt;/div&gt;" style="shape=step;perimeter=stepPerimeter;whiteSpace=wrap;html=1;fixedSize=1;fillColor=#b1ddf0;strokeColor=#10739e;" vertex="1" parent="36">
                    <mxGeometry x="149" y="38.569832402234624" width="127" height="35.75418994413407" as="geometry"/>
                </mxCell>
                <mxCell id="65" value="compare different models and choose the right modell for this task" style="rounded=1;whiteSpace=wrap;html=1;fillColor=#fad9d5;strokeColor=#ae4132;" vertex="1" parent="36">
                    <mxGeometry x="69" y="109.99999999999999" width="290" height="40" as="geometry"/>
                </mxCell>
                <mxCell id="37" value="" style="group" vertex="1" connectable="0" parent="1">
                    <mxGeometry x="100" y="70" width="380" height="180" as="geometry"/>
                </mxCell>
                <mxCell id="38" value="Research" style="swimlane;horizontal=0;whiteSpace=wrap;html=1;startSize=40;" vertex="1" parent="37">
                    <mxGeometry width="380" height="180" as="geometry">
                        <mxRectangle x="450" y="470" width="40" height="140" as="alternateBounds"/>
                    </mxGeometry>
                </mxCell>
                <mxCell id="41" value="&lt;div&gt;models for&lt;/div&gt;monocular depth estimation" style="rounded=1;whiteSpace=wrap;html=1;" vertex="1" parent="38">
                    <mxGeometry x="60" y="20" width="120" height="60" as="geometry"/>
                </mxCell>
                <mxCell id="42" value="models for colorbased segmentation" style="rounded=1;whiteSpace=wrap;html=1;" vertex="1" parent="38">
                    <mxGeometry x="60" y="100" width="120" height="60" as="geometry"/>
                </mxCell>
                <mxCell id="43" value="other high level features based on rgb-data?" style="rounded=1;whiteSpace=wrap;html=1;" vertex="1" parent="38">
                    <mxGeometry x="210" y="60" width="120" height="60" as="geometry"/>
                </mxCell>
                <mxCell id="44" value="" style="endArrow=classic;html=1;" edge="1" parent="1">
                    <mxGeometry width="50" height="50" relative="1" as="geometry">
                        <mxPoint x="520" y="150" as="sourcePoint"/>
                        <mxPoint x="630" y="150" as="targetPoint"/>
                    </mxGeometry>
                </mxCell>
                <mxCell id="45" value="" style="endArrow=classic;html=1;" edge="1" parent="1">
                    <mxGeometry width="50" height="50" relative="1" as="geometry">
                        <mxPoint x="450" y="400" as="sourcePoint"/>
                        <mxPoint x="630" y="220" as="targetPoint"/>
                    </mxGeometry>
                </mxCell>
                <mxCell id="47" value="" style="endArrow=classic;html=1;" edge="1" parent="1">
                    <mxGeometry width="50" height="50" relative="1" as="geometry">
                        <mxPoint x="869.58" y="270" as="sourcePoint"/>
                        <mxPoint x="869.58" y="314" as="targetPoint"/>
                    </mxGeometry>
                </mxCell>
                <mxCell id="40" value="System Design" style="swimlane;horizontal=0;whiteSpace=wrap;html=1;startSize=40;" vertex="1" parent="1">
                    <mxGeometry x="100" y="259" width="300" height="310" as="geometry">
                        <mxRectangle x="450" y="470" width="40" height="140" as="alternateBounds"/>
                    </mxGeometry>
                </mxCell>
                <mxCell id="49" value="" style="shape=image;verticalLabelPosition=bottom;labelBackgroundColor=default;verticalAlign=top;aspect=fixed;imageAspect=0;image=data:image/png,iVBORw0KGgoAAAANSUhEUgAAAkIAAADUCAYAAABwB0x3AAAAAXNSR0IArs4c6QAAAARnQU1BAACxjwv8YQUAAAAJcEhZcwAADsMAAA7DAcdvqGQAACDWSURBVHhe7d19cFT12f/xz8FaCAIiaAn8VEyAysbEkghWu7daHBQnITwplslCpsqTitIKIVS5VRShAokGrZYHYzvBBIoPaMLG2ylTmUodSoWIZAiYNBHQgpIQrc815Pz+2N1k892gpOThJOf9mjkzcF3f3ay2Hj5c57vnWF6v15ak+vp61dXVadeuXQIAAHCDbmYBAADALQhCAADAtQhCAADAtQhCAADAtQhCAADAtQhCAADAtQhCAADAtQhCAADAtQhCAADAtQhCAADAtQhCAADAtQhCAADAtQhCAADAtQhCAADAtQhCAADAtQhCAADAtQhCAADAtQhCAADAtQhCAADAtQhCAADAtQhCAADAtSyv12tLUn19verq6rRr1y5zjfLy8lRUVKSSkhJ99dVXZhttrHfv3ho1apQmTJigW265xWwDAID/0ncGoS1btigzM1PXX3+9br31Vl199dXq2bNn+OvRDj755BPt2LFDBQUFKi8vV1ZWlq677jpzGQAAaKFTBqGcnBxt2rRJa9as0YgRI8zXoYP85S9/0Zw5c/Twww8rLS3NbAMAgBZodo/QCy+8oM2bN2v79u2EIIe5/vrrtW3bNj344IN68803zTYAAGiBiCBUV1en+fPn69lnn1WPHj3MNhxg8ODB+v3vf6/MzEyzBQAAWuCsiy++eIkk2bat+vp6nTx5UtHR0Zo+fbq5Fg4yZMgQvf7664qKitKll15qtgEAwGmImAi9+uqr7D3pJH7xi1+osLDQLAMAgNMUEYRKS0s1atQoswwH8nq92r17t1kGAACnKSIIdesWUYJDRUdHq7q62iwDAIDTROoBAACuRRACAACuRRACAACuRRACAACuRRACAACuRRACAACuRRACAACuRRACAACuRRACAACuRRACAACuRRACAACuRRACAACuRRACAACuRRACAACu5bwgVOSTZVkNh6/IXOAUxfJZccquMOsAAKCzcFQQqloVJ2u85Ldt2bYt2/ZL4x0YhiqyFWelqMCsAwCATsVBQahKL+eVKa0wX8kNtWTll1fK56mSJBWnN06KLMunYgUnSAnZyg71ErJV1TBVapzYVK2Ka3xtenGgWOSTleCTLyFUq1J2QtjPSMhW4CeHK5ZvkuQvz5LHbAEAgE7FOUGo4mXllnqUZKaLoTFKHhojqViaEpoUVSorvkD5oUlRaYb2TAlMkNJKMxT7gi+4pky5W6qkIp9i82aoMvTakpTGKVNpiZK22LLzkqWKMnm2NE6j0kpz9XLEpa9k5e9boBizDAAAOh3nBKGhHiWatSaSlZwamgrFKqM0vJcmX6okeZQUL6VNSZYUI0/wDasOlEilGYq1Gl9b8EJwKqREeYYGfzk0WclDQ1OhznHp69NPP1VsbOwZHZdccommTZtmvjUAAF2ec4KQPEqKL9OeMqMcvPRVVZGtOMtSRkJlcNpjrPs+0/3BSU/wyGu8ANegyCfLitWe5cGJkNl3oD59+qisrOyMjp07d6qkpMR8awAAujwHBaEYTU73qGB8cO+PFNiPM75AactDl6LSlLUwJngZLeyl3yNmeKK0ISO4Xygw8YlbFbn7R5IUn6VHUyUV5XeKiZBlWerevfsZH5ZlmW8NAECX56AgJMUs3K/KlSVKadgQnSIV2spPlTR0smbEFwR6k6QZ06WSA6cIM6bUfFWulDKGBS+NJfq1f2Ezu3xSfYE9RpYl64UkZTU3oQIAoCsIXmkJv2XN6dy2pmpVXOOXjk5HRbbiQl9wciDL6/XaklRfX6+6ujodPXpUR44cMdfBgWzb1uDBg3X48GGz1SK1tbW65pprVFragjEbAKBzq8hW3LBczSjfrwXBvbJVq+ICXy76ji8FVa2KU+y+rOa3mDSnyBe8NU74t8Kdw1ETIQAA0HFiJs2Qp3SPQhdDwm8903RLSb585i1pml0f2OIiFSilJVOkdkQQAgAAkqSqLbkqi08K3CevyKfYzMTgTY79SsyMbbxstqFESeXBLxZtCN6Sptn1ycovTJOUJv/pTpDaGUEIAADXKgvunw0csZlS1pbAZbGqAyXSdF/wclayfOF7c+NnaPLQpvXvXO9gBCG0qi+//NIsAQAcy6Os8sBtZSpXesICjnsQhNBqamtrNWXKFOXk5BCIAKCTiVm4X/7EDMUG9/IEbj2TH/y2V7HyN0iJw4NbqBuevNBY/871DkYQQqt67733dOTIEY0cOZJABACdTHJeYM+PlV4cvPVM6JY2KSpZWRm4nY0kxSdqz6TgUxim+wP1U633JMnj4M3SfH2+E3Pa1+fD3+fgwYNat26dXnvtNc2ePVuzZ89Wz549zZcAANChmAihTVx66aXKzs7Wli1bmBABAByLIIQ2RSACADgZQQjtgkAEAHAighDaVXggOnz4MIEIANChCELoEJdeeqkef/zxiED01VdfmUsBAK2sOD38Qatn8EDUFj9QtVg+K07ZFWa94xCE0KHMQHTFFVcQiACgzVQpO8FSivyy7cCNFO1CKaVFYSZMWeNzyTorghAcoblAtHr1agIRALSmipeVW2o89ys1X5XlPnmCU5rIB6cGa+k+40GrTR+oGr6m4YGrrTF1amMEIThKeCA6dOgQgQgAWlGTh6qGiRmarJihp3pwanDRBsln27LLs+TZkKHsimYeqBpcs3+hlJ0QuKli4PEdJUpJyJYTnzwWEYROnjxpluBQH3/8sfr162eWuwQzEI0cOZJABABnKGZ4ollq4jsfnBoKUEM9OuW7NISsMu0p9WjGpMAjNmImzZCn1JmX0SKCkMfj0TvvvGOW4UA7d+5UYuIp/+/YJYQC0csvv0wgAoAz5UlqNpAUpzdeBnObiCA0fvx4bdy40SzDgTZv3qxx48aZ5S6JQAQArWDoZM2IN577VeRTyoY0ZS1szQenepQUX6bcLcE9Rqe4JOcEEUFo5syZev7551VV5c5k2Fns2LFD+/fv180332y2ujQCEQCciRgt2FeprJKUxq/Pj5f8dn7gctipHpx6Kqd8oGqMFuwL7DGyLCuw72jfAv03kaqtRTx0ddeuXcrLy1NeXp62bdtmrocDVFdXa/To0crOztaNN95otlusLR662l4OHjyotWvX6vXXX294uGtUVJS5DACAZkVMhCQpPT1do0eP1pgxY1RZWWm20YHefvtt3XDDDZo3b16rhKDOLjQheumll5gQAQBarNkgJEmLFy9Wenq6rrnmGi1cuFC7d+82l6Ad7dixQ3feeafS0tK0dOlSzZo1y1ziasOHDycQAQBarNlLY+G+/PJL5ebmqrCwUPv371d9fX2TPtreWWedpcTERE2aNEm333672T5jrXVJq7XepzUcOHBATz75pD799FPl5+ebbQAApNMJQuj6WivAtNb7tJaamhqNHj1a7777rtkCAED6rktjAADADQLPH2vt+wh1lnsTEYQAAEArq1JZiVlzJoIQAAAIKpbPipMvPfTg1ThlVzTWs1f5mqlbDc8jCzx4tVhVq1KUUSqVZaYE1zkXQQgtxjexAKArK1NJgl+2bcs/vUwZj4RullimjH2+4ENUpYxJp36IasxCv7LiJc9KvxYMNbvOQhBCi/j9fg0cOFA5OTkEIgDookKP1fAkhD8Uw6OsBwOPY3XyQ1RbiiCEFklJSVH//v310EMPadiwYXriiScIRACATosghBZ7+OGHZVmWPvzwQy1ZskRDhgxRdna2vv76a3MpAKDLaO4hqh4lxUslB6okVenlvM43Izqt+wht2LBBW7duVUlJib744guzjTbWt29fjRw5UhMmTNDkyZPN9hmrra3V5MmTdfjwYbN1Sh9//LE+//zzht9HRUUpJSVFZWVl3EcIcJD6+nr98Y9/lN/v1969e5ngdoB+/frppz/9qSZOnKhx48aZbQeoUnZCrHLTK7V/YZl8VopUaCs/NbD5OXZfluw8yWelqCTeo7LSssBlsvL9WjA0uCYzUEubLhUoS3ZesorTLaVsaFznVN8ZhF599VVlZmbq2muv1a233qqrrrpKvXv3Dn892sGJEye0Y8cObdy4UZWVlVq1apWuvfZac9kZack0Z8uWLbrrrrv0ySefqHv37urevbvmzZun6dOna/LkyQQhINyRP0l75gZ+nfS0dNEvzBVtZuPGjVq0aJFSU1M1ZcoUXXnllerZs6e5DG3s+PHj+utf/6r8/HzV1NQoOztbI0eONJc5XHGTgNSleL1e2+v12ldffbU9atQoOyQnJ8ceNWqUvXv37oYaOt6f//xnOzY21i4oKDBb7SYhIcH+wQ9+YPfu3du+//777WPHjtm2bdsnTpywL7vsMnN5h6murrYTEhLMMtC+/i/OtjcrcPxfnNltM8uWLbN//vOf22VlZWYLHaiwsNAeOHCgXVhYaLYczm+nSXZaZ/vYp6HZPUIvvviiNm3apO3btyspKclsowONGTNG27Zt0+LFi7Vjxw6z3eY2bdqkf/7zn1qwYIHKy8u1bNkyDRgwwFwGIMQ6q/lft6E//OEPeuONN/TGG29o+PDhZhsdKDU1Va+//rrmzJnTyabVycq3u+A0qLnN0idPntT8+fO1fv16RqgOFRMTozVr1igzM9NstbmpU6eqsrJSjz32GAEIOB3xS6Wo/xc44pea3VZ34sQJLV68WM8995zZgkMkJCRo9erVWrRokdlCB4gIQuvWrdPkyZMVHx9vtuAgN954owYNGqSiouDtPNsRAQhogUETpHEfBI5BE8xuq1u7dq1mzZqliy66yGzBQaZMmaK6ujq9+eabZgvtLCIIvfLKK0pLSzPLcKCpU6d2SBAC4FxbtmzRtGnTzDIc6NZbb+Uc7gARQai0tFRXXnmlWYYDeb1e7d692ywDcKn6+np98MEHGjZsmNmCA/3sZz/Tnj17zDLaWUQQ6tYtogSHGjBggI4fP26WAbhUbW2t+vfvb5bhUAMGDFB1dbVZRjsj9XRilmWZJQAuZtu2WYKDWZbF/2YOQBACAACuRRACAACuRRACAACuRRACAACuRRACAACuRRACAACuRRACAACuRRACAACuRRACAACuRRACAIcoLCzU008/rW+//dZsAWgjBCEAcIibbrpJjz76qGJiYvS73/1O33zzjbkEQCsjCAGAQ/zwhz/UkiVL9OGHH+qee+7RkCFDCERAGyMIAYCD3H777br44oslqSEQxcTEKCcnh0AEtAHnBaEinyzLajh8ReaCjlYsX9jni1tVZS7o8r7++muzBKCVnH322Vq8eHGT2tGjR3XvvfcqNjZWTz75ZCcORKHzp0/F4eWKbMVZlqz0JtXvVLUq7nvWF8tnxSm7wqyjPdm2bZYcx1FBqGpVnKzxkt+2Zdu2bNsvjXdWGCpOT1HJysrA5yvPkjJjHfX52lpxcbGio6O1evVqAhHQRm677TYNHjzYLOtf//qXfvWrX+mSSy7pxIHII098icrCAkrVllyVhS9Bl5Cfn6/+/ftr7dq1jg5EltfrtSWpvr5edXV1Onr0qI4cOWKuawdVyk6I1Z7ltvJTw8oVVSqWlDw0RsXpllI2hBpp8tv5Si7yybo/SVmJGcrYICk+S5XL9yh2fIEkj7LK92vB0EDIis0M/qc23S87LzkwfbpfSlOBChL9svM8yk6IVUZp8EfEZ6ly3wLFhH5khFN85nZi27YGDx6sw4cPm602FRsbq5qaGvXu3VsZGRm644471KNHD9XW1uqaa65RaWnoX2DHqqmp0ahRo7R+/XqzBThecXGxHn/8cbPcxMCBA7Vo0SLdcccd6t69u6qrqzV69Gjt27fPXOoQxfJZGUpamahcPar9C2OC59EU7UmUCpQVODerWD4rRQVS47lewSsGwXN72vSw9RXZihuWEQxTofXBnxX8M8CJampqdP3112vv3r1mq0s4efKkBg0apG+//VbnnXeeFi5cqDlz5siyLHNpx/J6vbbX67Wvvvpqe9SoUfaFF15od4jyLNsjj51VbjZC/La/MPTrSjsrXnZaoW3bhWm2FPy17bfTJFvT/Q1rPCsrA2vis+zKZl8b9jPL/ba/4ef77bTv/Dyhz5xm+816O6mvr7cvuugis9zmNmzYYJ977rm2JLtPnz72wIED7ezsbPvo0aP2ZZddZi7vMNXV1Xb//v1tSRwcXfqIjo62n3jiCfuDDz6w4+Pjzf8UHCR4Xi3Msj2hc3J54Nf+lZ7Ic7dt25UrPcHzd+D8HjjXB9YE1jc9V1c2vM9pnMM7WHV1tX355Zeb5S7lySeftHv16mVLsvv27WsPHjzYfuaZZ8xlHcpBE6HTS+/hU6G0Qlv58gUvp+Ur2ZjQFKdbykiolF8pjdOgkOl+2VPyw14bEniPwFSocaIU6fQ+b1uybVt9+/bV+eefb7ba3Mcff6zPP/+84fdRUVFKTk7WgQMHHDURuvTSS1VTU2O2gC5p+PDhOuussxzz32Ck0HnTL01Kkbbs1+QtcUqRP3Ce3pclO09Nz60V2YobtkdZhVJK2Pm6alVcYP2DZWHToJA0+W2f8jv4HP19ampqNHz4cPXp08dsdSnV1dX697//3fD7nj17atasWcrJyWmyrsM4ZiIUPqkJF5rmlGfZHoX+lmBOdUJTmabv4Z8eWN/4NwRDk9c2N106xd8mOngSFFJfX29feOGF9pdfftmuR0FBgd23b19bkt2jRw+7T58+9uLFi+0DBw4wEeLg6ICjR48e9m9+8xu7srKyc0yEygOTG89Kv50V3/j7Zic5ofOtcb5uWH/K8/F3nMMdorq62o6Pj484x3al45lnnrHPOeccW5Lds2dPu3///vajjz5q19bWmv86OoyDJkKhfTyJYROawHViFdrK9wT/VmDnKzl4PTjxNCdC+4f/r6zxJcHpTmBNbnqoHjYRCu43qty3QDFFvrDXhH3IimzFTZL837l3qH101B6hyy+/XGVlZYqKitLdd9+tefPmKTo62pF7hJKSkrRy5UqzBTje9u3btWbNGrPcxA9/+EPdeeedyszM1KBBgzrPHqHy/VqgbMVNypVKE5Vl58sTmvAE92rmpldq/8KYwJ8LeTNUuc+j/w39eZAanNwn+oMTpMCXWCLXO38i1JX3CEnSJZdcoqNHj6pXr1669957NXfuXJ133nnmso7lnIlQQOVKT5O/6TROiILXhCVb8Vl2VnDaczoToYj3DU2HzIlQaI+RZGt6VjMTqrDP0OxnbF8dsUdo48aNds+ePe3MzEz76NGjTXonTpxw3EQoISHBLAOOV1dXZw8ePDjiXBM6evToYc+fP98+duxYk9cdP36800yEmu7zCZ8IhdaF/nkjp/aSx06bHrY+eMWg6frOMRHqynuEcnJy7KioKHvJkiX2iRMnzLZjOGoihJbpqInQsWPHFB0dbZYdOREaPXq03n33XbMFONq6des0Z84cs6zevXvr7rvvVkZGhvr162e2O8FECOHcMBGqra113gTI4Kj7CKFzaC4EAWgd3377rZYvX96k1rdvXz3wwAM6dOiQli9f3mwIApzI6SFIBCEAcJbc3FwdOnRIknT++edr2bJlOnz4sB555JFO8YcK0NkQhADAIf7zn//o4Ycf1oABA7Rq1SodPnxY999/v3r37m0uBdBKCEIA4BB+v1/33Xef3n//fWVkZCgqKspcAqCVEYQAwCEmTZqkefPmqUePHmYLQBshCAEAANciCAEAANciCAEAANciCAEAANciCAEAANciCAEAANciCAEAANciCAEAANciCAEAANciCAEAANeKCEInT540S3Co48ePq1+/fmYZgEude+65qq2tNctwKM7hzhARhIYPH6533nnHLMOBdu7cqcTERLMMwKXOPvtsXXDBBTp06JDZggP9/e9/14gRI8wy2llEEBo/frw2bdpkluFAmzdv1rhx48wyABebMGGCCgoKzDIc6IUXXlBKSopZRjuLCEIzZ87Uhg0b9P7775stOMjf/vY3lZaW6uabbzZbbe6bb74xSwAcYvbs2Xrqqae4ROZwr732mj777DONGTPGbKGdRQShXr16admyZZo1a5bZgkOcOHFCd955p1asWGG22lxxcbEGDBig1atXE4gABxo0aJDuu+8+zZgxw2zBIQ4dOqS5c+fqscceM1voABFBSJJ++ctf6tprr9UNN9zAZMhhdu/erTFjxmju3LkaO3as2W5zycnJ6tevnx588EENGTJEOTk5BCLAYe655x4NGzZMEydO1EcffWS20YHefPNN3XjjjVq6dKmuvvpqs40O0GwQkqQHHnhA06ZNk9fr1aJFi1RSUmIuQTt66623dNddd2nq1Kl6+OGHNWfOHHNJu3nkkUdkWZY+/PBDPfTQQ4qJidETTzxBIAIcZMWKFRo7dqwSExP1wAMPqLS01FyCdrR9+3bNnDlTc+fO1dNPPy2fz2cuQQexvF6vLUn19fWqq6vTrl27miz44osv9Oyzz6qwsFAHDhxo0kP7GTFihCZNmqSZM2earTNWW1srn8+n8vJys3VKx44d0+eff97w+6ioKKWkpKisrMwxJ9yamhqNHj1a7777rtkCXKOmpkbPPfectm7dqvLyclmWZS5BG7JtW926ddPIkSM1efJkpaenm0vQwb43CKHrq62tldfr1dtvv222mvXKK69o7ty5+uSTT9SjRw+dffbZuueeezR9+nTdcsstBCEAQKdxyktjcJdu3bqpZ8+ep3WsWLFCn3/+uXr16qVf//rXOnjwoJYtW6YBAwaYbwsAgKMRhNAimzZtUkVFhe6991699957+u1vf6uBAweaywAA6BQIQmiRqVOnqqKiQitXriQAAQA6PYIQWowABADoKghCAADAtQhCAADAtQhCAADAtU7rPkL5+fnaunWrSkpK9Nlnn5lttLF+/fpp5MiRmjBhgiZOnGi2z1htba2uueaaM77/T2u9T2s4duyYcnJyVFFRoRdffNFsAwAgfV8QKiwsVGZmprxer2699VZdddVVOvfcc8Nfj3ZQXV2tHTt2aOPGjTp06JCysrL0P//zP+ay/1prBZjWep8zcezYMa1bt05r167V7NmzNXv2bDZ3AwBO6ZSXxp566iktXbpUzz//vHJzczV27FhCUAc5//zzNXHiRP3pT3/S0qVLlZ6erk2bNpnLXO2jjz7SI488oiuuuEK2bevtt9/WQw89RAgCAHynZoPQSy+9pPz8fG3fvl0jR4402+hAN9xwg7Zt26b77rtPb731ltl2nVAASkpKIgABAFosIgidPHlS8+fP1/r163XOOeeYbThAbGys1qxZo4ULF5ot1yAAAQBaQ0QQWr9+vSZOnKiEhASzBQcZO3asoqOjtXXrVrPVpRGAAACtKSIIvfLKK/L5fGYZDjR16lQVFhaa5S6JAAQAaAsRQWjfvn268sorzTIcyOv1avfu3Wa5SyEAAQDaUkQQ6tYtogSHio6O1vHjx81yl8C3wAAA7YHU04lZlmWWOj0zAP3jH/8gAAEA2gxBCI5AAAIAdASCEDpUeACqr68nAAEA2hVBCB2iuQC0ZMkSAhAAoF0RhNCuPvroIy1durQhAO3atYsABADoMAQhtIvwAHTy5MmGADRo0CBzKQAA7YYghDZFAAIAOBlBCG2CAAQA6AwIQmhVdXV1BCAAQKdBEEKr+tGPfkQAAgB0GgQhtJrzzjtPmzZtIgABADoNghBaFQEIANCZEIQAAIBrEYQAAIBrOS8IFflkWVbD4SsyF3S0KmUnOPnzAQCA0+WoIFS1Kk7WeMlv27JtW7btl8Y7K2xUrUpRRqI/8PkK01Qw3qdicxEAAOgUHBSEqvRyXpnSCvOV3FBLVn55pXyeKklScXrjJMayggGkyCcrIVvZoV5Ctqoapkpxyq4IvvuquMbXpgejS5FPVoJPvoRQrem0x0rIVuAnN4pZuF92XuMnVHySPOELAABAp+GcIFTxsnJLPUoyU8XQGCUPjZFULE0JTYoqlRVfoPzQpKg0Q3umBCZIaaUZin3BF1xTptwtVVKRT7F5M1QZem1JSuOUqbRESVvsQLipKJNnS+M0Kq00Vy8Hg1RTwcA0vkBpyxcoxmwDAIBOwTlBaKhHiWatiWQlp4amQrHKKA3vpcmXKkkeJcVLaVOSJcXIE3zDqgMlUmmGYq3G1xa8ELqglSjP0OAvhyYreWhoKpSigmA5UowW7HPGpbtPP/1UP/7xj8/oGDVqlIYNG2a+NQAAXZ5zgpA8Soov054yoxy89FVVka04y1JGQmVw2mOs+z7Tg/t6Qkf45a2QIp8sK1Z7lgcnQmY/QiB4lRwwL6C1nz59+qikpOSMjr179+r555833xoAgC7PQUEoRpPTPcbm42L5mlx+SlPWwpjgZbSwl36PmOGJ0oaM4H6hwMQnbtUpwkt8lh5NlVSU3+xEqGpVXONrg5fzZkzquItjlmXpnHPOaZUDAAC3cVAQCmxErlxZopSGDdEpUqGt/FRJQydrRnxBoDdJmjG9BZOY1HxVrpQyhgUvjSX6tX9hM+El1RfYY2RZsl5IUlYzE6qYhX7NyIsNfL5hGUos3K8FoUtrAACgU7G8Xq8tSfX19aqrq9PRo0d15MgRcx0cyLZtDR48WIcPHzZbAADgNDhqIgQAANCeCEIAAMC1CEIAAMC1CEIAAMC1CEIAAMC1CEIAAMC1CEIAAMC1CEIAAMC1CEIAAMC1CEIAAMC1CEIAAMC1CEIAAMC1CEIAAMC1CEIAAMC1CEIAAMC1IoLQyZMnzRIc6vjx4+rXr59ZBgAApykiCA0fPlx79+41y3CgnTt3asSIEWYZAACcpogglJqaqk2bNpllONDmzZs1btw4swwAAE5TRBCaOXOm8vLydOjQIbMFB3nrrbe0b98+3XLLLWYLAACcpogg1Lt3bz366KOaPXu22YJD1NbW6q677tKKFSvMFgAAaIGIICRJt912m7xer8aOHctkyGFKSko0ZswY3XHHHbrpppvMNgAAaIGzLr744iWSZNu26uvrNWvWLEnSddddp7q6Ovl8PlVXV+uCCy5QdHS0+Xq0k507d+qxxx7T8uXLtXz5ck2bNs1cAgAAWsjyer22JNXX16uurk67du1qsuCzzz7Ts88+q8LCQh08eFBnnXVWkz7aXn19vX7yk59o4sSJXLIEAKAVfW8QAgAA6Kqa3SMEAADgBgQhAADgWgQhAADgWgQhAADgWgQhAADgWgQhAADgWgQhAADgWgQhAADgWv8fW+A817Apg7QAAAAASUVORK5CYII=;" vertex="1" parent="40">
                    <mxGeometry x="112.81" y="12.49" width="129.53" height="47.51" as="geometry"/>
                </mxCell>
                <mxCell id="50" value="" style="shape=image;verticalLabelPosition=bottom;labelBackgroundColor=default;verticalAlign=top;aspect=fixed;imageAspect=0;image=data:image/png,iVBORw0KGgoAAAANSUhEUgAAAi0AAAC+CAYAAAD5hD+2AAAAAXNSR0IArs4c6QAAAARnQU1BAACxjwv8YQUAAAAJcEhZcwAADsMAAA7DAcdvqGQAAC4bSURBVHhe7d17eFTlnQfw7yFYhW4RqUpFECYkmDNOrAGs1oVHUHdpEwGDgjDTxKWQRFZouAQoIhAQ6zZMuLWACaBswgTWC2jCpIu4C0+76NKSBEzIhE6YWFjDPdhyEQrk3T/mkpk3CeQylzPJ9/M853ky7+83Z+bRcPjxO+95X0UIISB577338MYbbyA5ORkTJ07ED3/4QzmFguR///d/sXXrVvzud7/DypUrMXbsWDmFiIioU1DkomXZsmXYv38/cnNz0b9/f+8QhVBZWRmmTp2KlJQUvPrqq3KYiIiow/MpWt577z1s374du3fv9s0iTbhw4QJGjhyJf/u3f8NPfvITOUxERNSheYqWixcvIiYmBp9//jk7LBr2+eefY9q0aTh8+LAcIiIi6tC6uH/YtGkTkpOTWbBo3FNPPYXY2Fh8+OGHcoiIiKhD8xQtRUVFmDhxom+UNGnChAnYtWuXPExERNSheYqWqqoqPiUUJp588kkcOnRIHiYiIurQugDAzZs3ERERIcdIo+677z7U1dXJw0RERB1aFwBoYqkWIiIiIk3x3B4iIiIi0jIWLURERBQWWLQQERFRWGDRQkRERGGBRQsRERGFBRYtREREFBZYtBAREVFYYNFCREREYYFFCxEREYUFFi1EREQUFli0EBERUVhg0UJERERhgUULERERhQXtFC1FJiiK4jlMRXKCVhTDpOiRXS2PExERUSBpomipWaGHMgawCgEhBISwAmM0WLhUZ0OvJKBAHiciIqKA00DRUoMdeTYYCy2I94zFw2J3wKTWAACKkxs6MIpiQjFcnZnYbGS7Y7HZqPF0axo6ITUr9A3vTS52DhaZoMSaYIp1j9UgO9brM2Kz4fxkb8UwJQJWuxmqHCIiIqKAC33RUr0DmytUDJYrgSgd4qN0AIqB8e4OjANmQwEs7g5MRQZKxzs7M8aKDER+YHLl2LB5Zw1QZEJk3hQ43O8tS2jo3lSUYfBOAZEXD1TboO5s6PIYKzZjR6PbP/GwlM+BTh4OESEELl++7JeDiIgoHChCCHHjxg3odDqcOHFCjgdBMUxKBgbbKzEnSo41KE5WkJDv/NlYKGCByXVLyYJ41CA7NhKlvxKwjHbmZsQ6YEUCIufZfE+UZIUYb/F6r5vzHBkVAKDC3Nz3qc6GPnozpjQXDwIhBHr27InevXvLoVapr69HbGwsdu7cKYeIiIg0J/SdFqgYbLChVKot3Ld/aqqzoVecRYiziyLl3U6S1dVBcR15DWWKR5EJiuIseoSwwijHNejuu+/Gn//853Ydf/rTn2C32+VTExERaZIGihYdxiWrKBjjmqsCOLsvYwpg/JX7dowR5rk6160kr7fehi4mDsjPcM1vcc5b0a9oPFsFAGAwY/loAEUWTrQlIiLSIA0ULYBubiUcWWVI8Ey2TQAKnbd6EDUOUwwFzlgiMCUJKKtqpvCQjbbAkQVkRCtQlEhkxFlRObeJWSmjTc45MYoC5YPBMDfV+SEiIqKQ0sCcFmotIQT69++P48ePy6FWuXDhAoYPH46Kila0r4iIiEJEE50WIiIiotth0UJERERhgUULERERhQUWLeQXtbW18hAREZFfsWihdqurq8PEiRORmZnJ4oWIiAKGRQv5xdmzZxEREYEf/ehHyMzMxMmTJ+UUIiKidmHRQn7RtWtXLFq0CCUlJYiIiMDjjz/O4oWIiPyKRQv5Ve/evVm8EBGFimvrG+dCrQ2HZ7PgZtSs0ENJbliX/raqs6FXvFeyDw4WLRQQ3sVLly5dWLwQEQWNCrO9Yc89R5aKgtez0cK15FvGVopQLBzPooUCqnfv3li8eDGLFyKiENElToFa0VBk1KzQezowvvvxWWByd2e8ui6N8537AwIFSGhNd8YPWLRQUDRVvCxdupTFCxFRgNXs3AybYTBUACgyIXJeHKxCQAgr4uZFNtw6yi/DYLtz3Jif4BxvMj8elkIjACOsefG+HxZg3HsoDGlt76G6ujo8/fTTKC8vl0PNOn36NHJycpCbm4uUlBSkpqbigQcekNNCZt++ffIQUbuMGDFCHiLyv+ps6KMzpFs3Ksz2SsyJcnZNIsvNEK5iozhZQUasA1YkIDJvChzlc6CTx5vIr4x5A8oYwCosCGrZIoQQ169fF3379hUUHurr60W/fv3k4Varq6sTjzzyiDzcaufPnxcGg0EebpFTp06JpUuXigcffFBkZmaK2tpaOSUklixZIgDw4OGXY+/evfKvGFFg2M1ChSrMdudLR5YqYDALhyvsyFIFkqyedGsShJrlaJTnM95Evig0CsAoGiLBwdtDFFLet40UReFtIyIiP9LNrYQ1LgORrrknupg4IN/ieuqnGJZ8IC5G50yu2Iwd1b7jt8wPgS4AoCiKPE4aJoSQh8IeixciosCIz3POUVGSi4HRFjiyypCgKFCUBJRlOWAZ7Uo0xKE00TlekGR1jjeXrw6GGoKJuIpw/Q344IMP4uuvv5bjpEG1tbUYPXo0SkpK5FCrhHJOy+2457zk5OQgNTU16HNeMjMzsXTpUs/rvXv3+sSJbmXfvn2Nfn84p4XID9z3iUaNGiUOHDjgc++ItOn9998XKSkp8nCraWFOy+2cPHlSLF26VPTp0yeoc17kOS2ck0Ctwd8fosDwzGl54YUXYLFYfCsa0qTt27djzJgx8nCH9IMf/MDnttHQoUN524iIqJPyFC0pKSn4+OOP/driJ//bvXs3Tp06heeff14OdWgsXoiIyFO0REREYOXKlUhJScHly5d9s0gTHA4HXn31VaxYsUIOdRosXoiIOi+fR55ffPFFmEwmjBgxAgcPHvQOUYjt2bMHzz33HN5++2089dRTcrjTaa54OXXqlJxKRNQpFCd7b5LYjs0MW70ZYjFMih7Z1fK4/zVap2XGjBlYtGgRfvazn2HKlCnYvXs3/vrXv8ppFATnzp3Dxx9/jJdffhmLFi1CXl4eJk6cKKd1anLxMmTIEBYvRNTJ1CA7VkECrJ5NEkUhkNCqwsNLiDZDbAnPI89NsVgs2LVrF8rKynDx4kU5TAHWq1cvDB06FGPHjsULL7wgh9tNy488t9WpU6ewevVqVFdX48MPP5TDLdbUI898ZJVair8/FFTV2dBHl8IsLalfU10MIB469/L985yliJrlQOVcnWtJ/zgY8wtQAABJVog8wKQkeF47YjM8OWVZDlTOtTXEYXQt418Mk5KBwa6tAgJKfpyIOo9weOS5Lc6ePSseffRRebhV+MgqtQd/fyiY5CX4G/FZct8qjIAwFrre5x73Xv7fK98nRziE2eBaxt/nc63C6LV1QCA1uj1ERERE4UMXEycP+aipKgOSTK4uTDxMSUBZVY0z6N79OUpFs2dx58CG0goVUxKdy/jrEqdArQjurSQWLUREROFMHdxk8VCcrEC/wlWcdBAsWoiIiMJZ1DhMMUj7ABWZkJBvhHmuPzc9VDHYYMPmnc5CqGbnZtg8XZjgYNFCLca1UIiItEiHOeUOmMsSGh55HgPXJNlbbHrYnGY3Q9RhTrkVcfMioSgKIufFwVo+B20pf9qKRQu1yPbt2zFw4EDMnz+fxQsRkeboMKfc9bizEBDSk0S6uZWeWOVc15yUuZUQnqIjHhbhevonag4qhYDIi5dy3HnyZ3i9N8BYtFCLTJw4EQMHDsSqVavw8MMPY8GCBVwLhYiIgopFSydXX1+PK1eutOhYsGABunXrhosXL2L16tUYNGgQFi5ciDNnzsinJSIi8rtmF5e7fPkyNm3ahMLCQlRVVclhCpLHHnsMiYmJmDp1qhxqtwsXLsBkMsFut8uhZp06dQqXLl3yvO7WrRsSEhJQVVWlicXl4FpJ+Nlnn8Xhw4flUItxcTBqDy38/pw/fx7vvvsudu3aBbvdDkVR5BQKICEEunTpgqFDh2LcuHFITk6WU6gt5IVbhBBiy5Ytok+fPmLevHmitLRUDlMQ7d+/X0ybNk1ERUWJwsJCORxUeXl5okePHgKA6NGjh+jTp49YuXKlqK2t5eJyRF5C/fuzfv168cADD4g33nhDlJeXy2EKor1794opU6aI2NhYsWfPHjlMrdTo9tCbb76JrVu3Yv/+/fj1r3+NuLhml5uhIHjqqaewfv16bN++HUuWLEFOTo6cEjRLliyBoijo27cvli1bBofDgVmzZuHOO++UU4koRObPn4/du3ejrKwMb775JgwGg5xCQTRixAhs2rQJ69atw2uvvQaLxSKnBIhzPyJ/r9MS6rVffIqWLVu24Pe//z327NmDAQMGeIcoxIYMGYLPPvsM69atw+7du+VwwBUXF6Ourg5vvvkmqqurkZ6ezmKFSGN+85vfwG634+OPP0bv3r3lMIXQ8OHD8emnn2LRokX44osv5HCYqIGtTB4LLk/RcunSJSxcuBAbN270zSDN6NWrFzZs2ID58+fLoYCLj4/H6dOnMWPGDBYrRBpUW1uLt99+G5s3b5ZDpBH9+/fHunXr8Mtf/lIOBVgxTIoepmS9ax0XPbKrG8azV5iaGFdgKnK+u2aFHkpyMWpWJCCjArDNS3DlBZ+naNm0aROSkpLYYdG4f/zHf4TBYMBHH30khwKOxQpRYFRUVOD69evycKvk5uZixowZuOeee+QQachPf/pTfO9738Nnn30mhwLMhrJYK4QQsCbZkLHMvXCcDRnlJggh4MgCMhKz0dzNH91cK8wGQM2yBmVNlqZ4ipbCwkJMnDjRN0qaNGHCBOzatUseJqIwFRERAZ1Oh3Xr1uHatWtyuEU++eQTGI1GeZg0aPz48bBarfJwwLmX7ldjvRfeV2Fe7FwiLhQbILaWp2ipqqrCY4895hslTXryySdRVhbiG4tE5DeqqmLYsGGYPn06Bg4ciN/+9retKl6uX7+Os2fPon///nKINOiJJ57AoUOH5GFqgS4AcPPmTURERMgx0qj77rsPdXV18jARhbHMzEwoioKvv/4aM2bMgE6nw/r161tUvPz1r3/lbaEwoq1reFMbIKoYbADKqmoA1GBHnnZ6L13gWgSHiIhCJyYmxucW/cmTJ/Haa6/hoYcewurVq1tUvBC1SZ5zo8XIeYB55xzooMO4ZBW2eZFQlASUxrlvJ+mgxmlkIi4REYXWm2++iS5dfC/LZ86cwaxZsxAZGYm1a9eyeKEWcm6g6Nwc0bnJoXtnZ93cSoi8hu0U437l3kyxYdPDhg0WK2HJa8iPz/PNCzYWLUREGjFw4EBMmjRJHgZcjzSnp6dDp9NhzZo1LF6oU2LRQkQUYEuXLsXIkSNbdNxuL7CTJ09i5syZGDBgANauXYurV6/KKUQt5NuBCQcsWoiIAmzfvn0tPv74xz/Kb2/SqVOnkJ6ejgEDBiAnJ4dzE6lTYNFCRBTGunfvju985zvyMFGHxKKFiCgARowY0abjiSeekE/VJFVVsW3bNlRXV2Py5MlQFEVOIepwWLQQEflZZmYm9u7d26YjOjpaPp2PmJgYbN++HUeOHMHEiRMbPW1E1JHxt52ISCOOHTuGgoICeRgAMGjQIFgsFhw5cgQvv/wyOyvUKbFoISLSiMWLF6O+vt5nLCoqClu2bEFlZSWMRiM7K9Sp8befiEgDbDYbtm3b5nk9YMAAvPvuu7DZbHjllVe41QoRixYiIm3IzMyEEAL9+/fHxo0bYbfbMXnyZHTt2lVOJeq0WLQQEYWYzWbDF198gXfeeQd2ux1Tp05lsULUBBYtREQhJoRAdXU10tLScMcdd8hhInLRTtFSZIKiKJ7DVCQnhFoxTF7fT7/CuZV3Z3Lq1Cl5iIj8QK/Xd/AF4tzXTxOKvYers6FXFCjJPqO3VLNCf5v8YpgUfch2ISanb775Rh7yC00ULTUr9FDGAFYhXLtKWoEx2ipcipMTUJblcH4/uxmYF6mp7xdo27ZtQ2RkJH75y1+yeCGiNlChGspg8yomanZuhs07hTqE1atXo0+fPli2bJnfixcNFC012JFng7HQgoaNsuNhsTtgUp3djOLkhg6Hp1IvMkGJzUa2OxabjRpPt6ahyq5ZoW94r7s6LzJBiTXBFOseq0F2rNdnxGZD7qPE57m3+AYQNQ5TDFJCBzdp0iQMHDgQK1euxKBBg/D6669runi5dOlSoz1dWnMQkf9NSY7D5p3uq2sNduQBxiTVK8O7o+3VlfG6tr9R7pXu7tTI+RRSM2fOxP3334+33noLAwcOxPLly/1XvAghxPXr10Xfvn1FSNjNQoUqzHY54GYV1kL3zw5hNkAYC4UQhUYBuH4WVmEEBJKsnhw1y+HMMZiFo8n3en2m3Sqsns+3CuMtv4/7OxuFVR4Pkvr6etG3b19x5cqVoB4Wi0X06NFDABB33XWX6NGjh1i4cKGw2WzCYDDIXzNkzp49K3r37i0A+O3Yu3ev/DFEmnH27FlN/RlszHVdLTQL1X1Ntjt/tmapja/dQghHluq6fjuv785rvTPHme97rXZ4ztOCa3iInTt3ThgMhkbX2I50rF+/XvzDP/yDACC6d+8uvv/974vly5eLCxcuyP85WkURQogbN25Ap9PhxIkTck0TBMUwKRkYbK/EnCg51qA4WUFCvvNnY6GABSbXLSUL4lGD7NhIlP7KucV2cbKCjFgHrEhA5Dyp+ZhkhRhv8Xqvm/McGRUAoMLc7Pdp2fcNJCEEevbsiXvvvVcOBdyZM2dw6dIlz+tu3bohISEBVVVVKC/3/idQ6Jw7dw4GgwGnT5+WQ232wQcf4KWXXpKHiTTh3LlzGDlypGb+DDbmvm5agcQEYGclxu3UIwFW53W63AyRB99ra3U29NGlMBcCCV7X65oVemf+Yhv00RnS7SUjrMIES4iv0bdz/vx5xMTEoEePHnKowxBC4Pz58/jb3/7mGevevTtSU1OxatUqn9xWEaHutHh3QLy5uyR2s1Dhrr7lbom72+F7DmuSM7+h8pb4vLeprk0zVXqIOyxu9fX1ol+/fvJwwOXl5Xk6LT169BAPPPCAyM7OFrW1tZr6V14gOi0bNmyQP4ZIM8Km02J3dkTULKswGxpeN9khcV9vpeu1J7/Z6/EtruEace7cOfHoo4/Kwx3K2rVrPZ2Wnj17iv79+4v169fLaa2mgTktOoxLVlEwxvt+ZDFMYwpg/NUcOGeRGGGeqwOqd2Bzhddbb0MXEwfkZ7jmtzjnrTT71I/BjOWjARRZ0OTOH9XZ0CfK3ZnOZcmSJVAUBQ8++CCWLl0Kh8OB2bNn484775RTQ+673/1uo43oWnNkZGTIpyQiP9AlTgHyMrC5Ig6qTydExWCDzTPnpWbnZtgMg6GONsGIAliK4JkDCQCIUhGHAmS4ruk1K/RNzkek4Ltx4waWL1+Orl27IjIyEm+//Ta++uorTJs2TU5tPRHyTouTI0v1+ZdtQ+fFdQ8TEDCYhdnVRWlJp6XRed1dF7nT4p4TAwgkmZvo/Hh9hya/Y3CFotOya9cucffdd4s1a9aIb7/91id2/vx5Tf0r7+zZs+3+V8zGjRt9/l8fOHBATiHSjHDqtPjOS/HutLjz3H/uGnfDAVUYk7zyXZ1433x2WkItPz9f3HPPPeKdd96RQ+2mgTkt1Frupb6PHz8uhwLq6tWruOuuu+Rh1NXV4emnn9bM/fRz587h2WefxeHDh+VQi23atAkpKSme1wcOHMCPfvQjnxwirdD+nBbydv78eTzzzDPtukZ1Vhq4PUThoqmChYjar6KiAtevX5eHiUjCooWIKMQiIiKg0+mwbt06XLt2TQ4TkQuLFiKiEFNVFcOGDcP06dMxcOBA/Pa3v2XxQtQEFi1EQfDtt9/yCNIRrjIzM6EoCr7++mvMmDEDOp0O69evZ/FC5IUTccNQqCbiNocTcW/txIkTmDhxIk6dOgVFUeQw+cmNGzfw2GOP4f333w/bzQeNRiO2bdvmM3b//fdjwYIFmDZtWrPLC3AibnjhRNy2Y9EShli03JrWihYAmDNnDvr164eZM2fKIfKj9PR0REdHY/r06XIoLBw7dgyDBg1CfX29HEKfPn0wf/58pKWlNSpeWLSEFxYtbcfbQ0RBkJqaitzcXFy5ckUOkR+lpaUhJycHf//73+VQWBg4cCAmTZokDwMAamtrkZ6eDp1OhzVr1vC2EXVKLFqIguDhhx/GT3/6U+Tm5soh8iO9Xo9nnnkm5P+dP/nkE4wYMaJNh91ul0/n4+TJk5g5cyYGDBiAtWvX4urVq3IKUcclNLIiLrVcKFbEvRWuiNsyVVVVQlVVcfnyZTlEfnTkyBFhMBjEtWvX5FDQrFu3rtEK2oE6evfuLZYvXy4eeeQR+WuQRnX0FXEDiZ0WoiBhtyU4tNJtCZbu3buH7cRjotZi0UIURJzbEhyhntsiPyU2dOhQPP300y06WjrhW1VVbNu2DdXV1Zg8eXKjzyTqiFi0EAURuy3BEepuixDC5/WmTZuwb9++Fh2DBg3yea8sJiYG27dvx5EjRzBx4kR06cLLOHUe/G0nCjJ2W4IjNTU1pN2Wtjh27BgKCgrkYQDAoEGDYLFYcOTIEbz88svsrFCnxKKFKMjYbQmORx55JKTdlrZYvHhxozVaoqKisGXLFlRWVsJoNLKzQp1aFzRx/5W0TW49U/hhtyU4wqnbYrPZfFbDHTBgAN59913YbDa88soriIiI8Mn3xmt4eBFC8P9ZG3WBa4dRubon7Tp9+jTuu+8+eZjCCLstwRFO3ZbMzEzPatcbN26E3W7H5MmT0bVrVzm1kXvuuQfnz5+Xh0mjTp8+jXvvvVcephbw9BkNBgP++Mc/+kZJk/bv348hQ4bIwxRm3N2WcN7kLxyEQ7fFZrPhiy++wDvvvAO73Y6pU6e2qFhx69KlC/r27XvbhelIGz7//HMMHjxYHqYW8BQtL7zwQrMTwEhbtm/fjtGjR8vDFGbc3ZacnBw5RH4UDt0WIQSqq6uRlpaGO+64Qw63SGJiIrZu3SoPkwa9//77vIa3kadoSU1NxY4dO1BRUeGbQZry6aefora2NiS/8KdPn5aHqJ3YbQkOrXdb9Hp9uxeIS0tLw8aNG7nxrcZ98MEH6Nq1K4YPHy6HqAU8RUtERARWrlyJlJQUTg7UqJqaGrz66qvIysqSQwG3bds2REZGYsGCBSxe/IjdluAIh25Le/Xq1QtvvfUWfv7zn8sh0ojy8nKkp6fj17/+tRyiFvJ5du6ll17CxIkTMWLECJSWlnqHKMQ+++wzPPfcc3jrrbcwbNgwORxwkyZNQmRkJMxmMwYNGoSFCxeyePETdluCQ+vdFn+YPHkyRo4ciZEjR6KqqkoOUwgVFRVh1KhRyMnJwaOPPiqHqYUaPfCfnp6OhQsXYtKkSUhJScGePXtw8eJFOY2CoK6uDoWFhZg0aRIWLlyI9957r9lt69vq6tWrLT5ef/11dO/eHX/729+wcuVKDBo0CIsWLcLZs2fl01IrPPzww/jJT37CbkuAdYZuCwC8/vrrSE1NxT//8z/jtddew759+9g9D5GzZ8/io48+wrhx42A2m1FYWBiSW/sdiSJusehHfn4+du3ahbKyMly+fFkOU4D17NkTQ4cOxdixYzFu3Dg53G4XLlzAuHHjcPz4cTnUrDNnzuDSpUue1926dUNCQgKqqqpQXl7ukxsq586dw7PPPovDhw/LoRbbtGkTUlJSPK8PHDjQ4j1h2uLo0aNITExESUkJunXrJofJT9xL35eUlLR7DsmtrF+/Hq+99prn9aFDh/DDH/7QJyfQ6uvrsWXLFlitVhw+fJidvBDo1asXnnjiCbzwwgt4/vnn5TC1hbztM3UedXV1rdrOPj8/X/To0UMAEHfffbd44IEHhNlsFrW1tcJgMMjpIXP27Nl2b/u+ceNGAcBzHDhwQE7xu1mzZolVq1bJw23myFIFAKFmOXzGrUkQgCrMdp/h4Ck0ChjMwvdbBc8vfvEL8Zvf/EYe9qt169b5/P4cOnRITiGiNmh0e4ioOYsXL4aiKHjwwQexZMkSHDt2DHPmzMGdd94pp1IbpKWl+X9ui0EFym1eA8Ww5Hu97IQ6w9wWoo6KRQu1iNVqRV1dHZYuXQq73Y5Zs2bxNoafBWRuS9wUTCmzoNj9usiCgiQjjF4pNSv0UBQFiqJAv6KmYSzZBJNrXEn2nKHJfKAG2bGuXEWP7GoARSYoisn12c64qchzGqfqbOjdn+E5nys32dRwLj/qLHNbiDoiFi3UIgkJCTh58iTS09NZrASQ/7stKtS4AlhcxULxBwUwjjc1hItMiJwXB6sQEMKKuHmRDYVFPmASAsJuhpqf4SlEmsqvWZGADJjhEAKiMA4ZidlwlzO3UmNTXecSEIVG2PJ2eN5XABOEqMScKOlNfuB+YovdFqLwwqKFWozFSuC5uy3+7ALEjzei4INi160hI0xeDy/UVJUBSSbEOzNhSgLKqlxlg2EwVACIUhF3m3xbuQ1q8jjoAGC0BaJ8jvPn29CNjofO3W0Z47sitxqr+rz2p0ceeQQjR470639nIgo8Fi1EGpOWloacnBz/dVtGm2DMt6C4yIICT8GhDcXJCpToUphdnZZgcndbrl+/LoeISKNYtBBpjP+7LfEwJRUg4/WyRt0LXUwckO+e8+KcpBsX03yPpLl8NVZtuLXjnsuiDoaKMtiqAVTvwOZmdghRs5Yj3nXrKpjc3Ra/ziEiooBi0UKkQe4nXPzVbYkfb4StApiSKBUkoy1wZJUhQVGgKAkoy3LAcqu1r5rJ182thDUuA5Gu2zzGQgvio8ZhisGGjGgFSmIp4gzyyVzfa14kFEWBJdYMtaIU3s86BRq7LUThpdnF5a5cuYLNmzejsLAQlZWVqK+vl1MowCIiIhAXF4fExMSA7Cdy4cIFDB8+vN2bZNbV1eHpp5/WxOJyVVVVWL16NS5evAiLxSKHWyzYi8s1Zfbs2ejfvz/S09PlEPlReno6oqOjMX36dDnUZlpYXI6oQ5IXbhFCiH//938Xffr0ERkZGeLgwYNymILoD3/4g3j11VdFdHS0KCoqksPt0trF5Zpz/vz5kC8uZ7PZxKxZs4RerxerV68W3377rZzSKoFYXM5qtYo1a9aIq1evyqEm2Ww2oaqquHLlihwiP6qoqBCxsbHi73//uxxqMy4uRxQYjW4PvfXWW8jLy8Mf/vAHrFixAkOGDJFTKIiGDRuGDRs2oKCgAIsWLcLGjRvllE6tqqoKs2fPxosvvoj+/fujpKQE6enpuOuuu+TUkBs1ahTMZjN0Oh3WrFmDa9euySk+YmJi/Dy3hZrCuS1E4cOnaMnLy8PevXvx2WefITIy0jtEITZ06FDs2bMHa9euxaeffiqHOx25WDl48KBmixW3iIgILF26FCdPnsTMmTM9xcvVq1flVA9/z22hpnFuC1F48BQtly9fxoIFC/gveQ279957sWHDBsyfP18OdRrNFSvhsoZMUlISdDrnZFh38TJgwABkZ2c3Wbyw2xIc7LYQhQdP0bJp0yb87Gc/81xQSZuGDRsGvV6Pjz76SA51aOFerLh17doVixcv9hk7ffo0MjIyoNPpsGrVqkbFSzC6LcXJDUvpu49GS+63QnGye0n+Ypjaea5gYbeFSPs8RUthYSEmTZrkGyVNmjBhAnbt2iUPd0gdpVjxlpycjOjoaHkYp06dwuzZsxt1XoLWbUmyOpfTdy3dXzamrcVGDWxl8pj2sdtCpH2eR5779OmD2tpaOU4adPr0aYwaNQqHDh2SQ62i5Ueeq6qqkJubi927dyM1NRWpqalBLVTkR543bNiAmJgYn5z2+PTTT/H222/Lwz7uv/9+vPHGG0hJScFXX32FF198ESUlJQGZt1OcrCABVoi8hvVya1boEVludo5VZ0MfneFaQ8UIq7AgHsUwKRkYnBWHjHkFAFSY7ZUYt1OPyHk212szSqMTgCQjCvIbcgKxn5A/HDlyBJMmTcK2bdtw9uxZOdxin3zyCVavXu15/eWXXyI2NtYnh4jaQAghbty4Ifr27Ss/WUQaVV9fL/r16ycPt5oWH3muqqoSs2bNEqqqitWrV4fscV/5kedQHvfff79YuXKlmDFjhli9erX8Vf3CmgSBJKvvYKFRwGAWDmEVRqjCbHcOO7JUV65VGNHwPkeW6sp3CLMBQs1yNMpp8nM05he/+IV48sknG/1/aM/BR56J/KOLq3CRaxmioDp69Chmz56NxMREn0eXg9ld0aozZ85g9uzZ2LVrF37/+98H/89rtQ1lcK1sqyjOLopnKX8V5sXO7owucUqzK9oaxztz5G0EtGjYsGHt6rI0RVEUeYiI2qDROi1EwcRi5faio6OxadMmjBo1Cv/0T/8UtL8Aa6rKgDjVtVuzEVb3fBchIIRFUxsv+tN//dd/4Qc/+IE83C5BLzSJOihFOG8PQafT4cSJE3KcNEgIgf79++P48eNyqFVCOafl6NGjyMnJwX/+538iLS0t6HNWbufkyZM4evSoPOw3LZnTEhMTg8WLF+Pll19GeXk5/uVf/gWlpaUBKVoazWlxzWGJKxSwjC6GybXPUOVcnXOuS94UOMpVvNHk+DjsiI3E5mQHKufaYFISgEIBy2hpnowGlZaWIi0tDVu3bsXJkyflcJs9/vjj+O53vysPE1FrCSHE9evXOacljITznBatzFkJpZs3b4qoqKhG8x7cx8CBA0V+fr64efOm5z3/+q//KjZs2OBzHn+yJjX+HsZCrwS7WaiemFG4ZqgIIyBUg+oab5j34jyfKsx2Z477XA3zYbQpLS1N5ObmysNEpBEsWsJQOBYt3sXKqlWrOmWx4vbee+81KhDcxcqWLVvEjRs3fPIPHTokHnvsMVFfX+8zHnq+BUm4KykpEUOHDpWHiUhDOKeFAsp7zspDDz2EkpISzJw5U1O3goLpxo0bWLZsmc/YgAEDsHnzZlRVVeGVV15BRESETzw3NxdpaWkBuS1EDXJzc5GamioPE5GGsGihgDh69CjmzJnDYkWSl5eHmpoaAMBDDz2E3Nxc/PnPf8bPf/5zdO3aVU7H4cOH8fnnnyMtLU0OaUA8LMI5VyXclZaWoqSkxGdtHiLSHhYt5FfexUq/fv1YrHi5efMmMjMz0bdvX6xfvx7V1dVISUnBHXfcIad6sMsSHOyyEIUHFi3kF9euXWOxchu/+93vMG/ePBw7dgzTpk27ZbECry4L/zINLHZZiMIHixbyi+joaPTr1w8HDx5ksdKM559/HtOnT8d3vvMdOdQkd5elS5c2/jEtMjXaBPF2GyH6bnSoR3a1nNFK1dnQKyYUu7YFUJKdS9JpCbssROGjjVdDoga9evXCBx98gJkzZ6J79+5ymNrAf10WeVG4W81B8d7oMB4W4Yc9gmwNK+Tq5lZqbn2W0tJSHDx4kF0WojDBooX8gsWKf7W7y3JbxTBJ3ZeaFQnIqABs8xKQXd3QaXF2SLKRHevKTy52jikKFFcXBahpiCsKlNhs1KAYpjEFAAqQ4H6Pu9Pi3QXyHos1weQ+T2w2nFOWA8f935mIwkOgrohE1Eb+67LAWTD43B5yFyIZKEiyOrsvhUYUvJ4NzLXCbADULGvjDkv+ZmCngLCboeYnOFfPFVYYUQBLkXN/InWnu5tjhbFiM3ZUx8NSaHR2e7w7LNXZ0I8pg9kuIIQD5rIE1y0pABVlGLzTfY4MvHGLW1ntxS4LUfhh0UKkMf7tssi3h5y3fHSJU6DmJzi7LLBAlM9x7THUDMMUjIsCEKUiDiqmJOoAqBhscMWj4hEf5e62JKBAersPWyls7vNBh3HJKmzl7ptIcVCj4HvuAGGXhSj8+OOq6B/SpMFbTRYMDd/2t/a+H3UE/u2y3ELUHFS6uyxjvG/ztFGRCYoSidJfubokclxj2GUhCk+aKFpqVuihjIHXvwitwBhtFQY1KxKQEefVTh/Tzos8URP822VpXs0KvfOWzGiL85aPnNAWBjOWjwZQZLl1p0UdDLViM3ZUA0ANduTZoMb65Ru0GLssROEpsFfGFnFetIyF3lvdx8Nid8CkOu9zFyd735N3FQtFJiix2ch2x2KzUePp1jQ8qtkwYbCZCX/JxY26KE1NAGz05INhsH8u9EQuX375ZQC6LPKcFufvvG6uFVPyIp2vozMQV2hBPHRQ49wTceXz3MZoE4wVGYhUFCgfDIbZYEOpzVWguCbiekTNQWVhHDKiFShKJDLirKice8ubU37FLgtRGBOh3jDRbhaq1+6wjVmF1bMhm0OYDa4N2gqNXjvROjduc+4e68xRsxzOHINZOJp8r9dn2q3C6vl8qzA2+32c52i0A26Q1dfXi759+4qrV6+26zh58qTQ6/Xy6SlEAr2TMzlxJ2ei8KUIIcSNGzeg0+lw4sQJuaYJgmKYlAwMtt96TYjiZAUJ+c6fjYUCFphct5QsiEcNsmOd99Mto525GbEOWJGAyHnuCX4uSVaI8Rav97o5z5FRAQAqzLf8PsUwKQlA4a3WvAgcIQR69uyJ73//+3KoVerr6zFs2DBs3bpVDlGQffnll3jllVdQUlIS8FtDnVlpaSlSU1Nx8OBBOUREYUADV0cVg92tZG+u2z811dnQK84iRAgHzK19osD9WKf7aGpxq1ZPInQ+2VBWJd9ECp67774bDoejXcdXX33FgkUjcnJygjKXpbPjXBai8KaBK6TzkUffia3ORamMv3I/hmmEea4OqN6BzRVeb70NXUwckJ/huj/vnLfiWQ9CdptJhJ6Ji4Dre7gf+yRqn8DMZSEZ57IQhT8NFC3OSa6OrDKvCYNet16ixmGKwTWZMBGYktSKDsdoCxxZuP2Ev+YmEXppPHHxVrePiFqOXZbgYJeFKPxpYE4LtZYQAv3798fx48flEIUZzmUJDs5lIeoYeJUkCqGcnBykpqayYAkwdlmIOgZeKYlCxD2XhX+ZBlZZWRnnshB1ECxaiEKEXZbgcM8ZIqLwx6slUQiwyxIc7LIQdSwsWohCIDc3l12WIGCXhahj4RWTKMi+/PJL7N+/n3+ZBhi7LEQdD4sWoiBjlyU42GUh6nh41SQKInZZgoNdFqKOiUULURCxyxIc7LIQdUy8chIFibvLwj2GAotdFqKOi0ULUZC4uywRERFyiPyIXRaijotFC1EQlJeXs8sSBOyyEHVs3DAxDHHDxPAzbdo06PV6Fi0BNmPGDDz++OMsWog6KBYtYYhFS3j55ptvkJiYiL/85S9yiPyovr4eP/7xj7Ft2zY5REQdhCKEEDdv3sSAAQNYtIQJFi1ERNQZdQGAiIgI1NfXyzHSqFOnTuHee++Vh4mIiDo0z0Rcg8GAP/3pT75R0qT9+/djyJAh8jAREVGH5ilaxo4di4KCAt8oadJ//Md/YMyYMfIwERFRh+YpWlJTU/Hhhx+isrLSN4M0Zc+ePfi///s/jB49Wg4RERF1aJ6ipWvXrli5ciWmTp2Kq1ev+maRJvzlL3/BtGnTkJWVJYeIiIg6PJ/F5caPH48JEyZgxIgROHTokHeIQuy///u/8dxzz2HZsmUYPny4HCYiIurwFCGEkAd37tyJefPm4ZlnnsGECRPw4x//GN27d5fTKMC++eYb/M///A8KCgpgt9thNpvx9NNPy2lERESdQpNFi1teXh6KiopQVlaGb7/9Vg5TgH3ve9/D448/jrFjx+Kll16Sw0RERJ3KLYsWIiIiIq3gholEREQUFli0EBERUVhg0UJERERhgUULERERhQUWLURERBQWWLQQERFRWGDRQkRERGGBRQsRERGFBRYtREREFBb+H4ertnQ8rFQfAAAAAElFTkSuQmCC;" vertex="1" parent="40">
                    <mxGeometry x="90" y="80.00000000000001" width="165.3" height="56.39" as="geometry"/>
                </mxCell>
                <mxCell id="51" value="" style="shape=image;verticalLabelPosition=bottom;labelBackgroundColor=default;verticalAlign=top;aspect=fixed;imageAspect=0;image=data:image/png,iVBORw0KGgoAAAANSUhEUgAAAksAAAC9CAYAAACj6TkvAAAAAXNSR0IArs4c6QAAAARnQU1BAACxjwv8YQUAAAAJcEhZcwAADsMAAA7DAcdvqGQAAC1JSURBVHhe7d15cFRVvgfwbxMEFLdBhRplSWfh0U1HK3EcdVyAwaUmIWxvMKHbhOFlSAqFASFERxkI7iSdESwwEghaSXUAnQFJ7Pj0KaDOyPCUxJCQjpPQPYKshiDKc4hZzvujl3SfLHRIL7eT76fqVtHnd+7tFpPLr3/n3HNUQggBIiIiIurSILmBiIiIiDowWSIiIiLqAZMlIiIioh4wWSIiIiLqgaq7Cd7Nzc0oLCxEaWkpqqur0U038qNBgwbhF7/4BWbNmoV58+bJYSIiIgqALpMlk8mEJ598Eo888giSk5Pxy1/+Uu5CAdDe3o5PP/0UJpMJn376Kf785z/jN7/5jdyNiIiI/KhTsvTSSy/hgw8+QEFBAaKjo91DFEQHDhzAggULsGTJEqSlpclhIiIi8hOPZKm4uBhvvPEG9uzZ49mLFOHMmTOYMmUK1q9fjwceeEAOExERkR+4kqUff/wR0dHR+OSTTxAZGSn3I4X45JNPsHTpUlRUVMghIiIi8gPX03BbtmyBwWBgoqRw999/PyZMmICdO3fKISIiIvIDV7K0e/duzJ071zNKivTII4/g3XfflZuJiIjID1zJUl1dHWJjYz2jpEh33303h+GIiIgCZBAAtLW1YdAgrk8ZKkaOHImmpia5mYiIiPxgEAAuOElERETUDZaTiIiIiHrAZImIiIioB0yWiIiIiHrAZImIiIioB0yWiIiIiHrAZImIiIioB0yWiIiIiHrAZImIiIioB0yWiIiIiHrAZImIiIioB0yWiIiIiHrAZImIiIioB0yWiIiIiHqgnGSpzACVSuU6DGVyB6Uoh0GlRV6D3E5ERET9kSKSJVuuFqrpgFkICCEghBmYrsCEqSEPWlUCSuR2IiIi6rcUkCzZsLPIAn2pCfGutniY6q0waGwAgPLUjoqTSmVAORyVqJg85DljMXmwuapTHZUfW66249zUcntjmQGqGAMMMc42G/Ji3N4jJg/2d3ZXDsMswFxvhEYOERERUb8V/GSpYScKazSIkzOQKDXio9QAyoE5zoqTFUZdCUzOilNNJirm2CtR+ppMRLxtcPSxoHCXDSgzIKIoDVbnuZUJHdWqmkrE7RIQRfFAgwWaXR1VLX1NIXZ2GmaLh6l6OdRycxC1trb65CAiIqLuBT9ZitIgVm7zEI/4RGd1KQKZNe4xPQyJAKBBnA7Qz4kHoIbGcUFbXSVQk4kIVce5JW87qkuIhSbK8ceoeMRHOatLoTHMdv78eURGRvbpUKvVmDt3rnxpIiIichP8ZAkaxOksqLBIzY5hNltDHrQqFTJjrI6qkdTvUlLMjoqR4yjqGOxzKTNApYpAxYuOypIcV6DrrrsOX3/9dZ+OQ4cOwWKR/+KJiIjInQKSJTVmp2pQMt0xFwmwzw+aXgL9i85hLz2MK9SOITu3Uy9BPSEWKM50zF+yV460uZ1nIwEAdEY8nwigzBQSlSUiIiIKDAUkS4B6RS2sOZVIcE3iTgBKBUyJAKJmI01XYo/NAtJSgMq6bhIeWaIJ1hwgM9oxDBdrRu2KLmYdJRrsc55UKqjejoOxq0oXERGR0jlGY9yX4vFmOR5brrbjIShvNORB63zgagBQCSFEa2sr1Go1jh07JsdJgYQQGDduHI4ePSqHeuXcuXO47777UFPTi3IdEREpV0MetNGFSKuvxXLHvFxbrtb+sFMPDynZcrWIqDZ2PVWlK2UGx5I/7k+y91+KqCwRERGRf6hnpUFTUwHngIn7kjqeU1NMMMhL7XTZ3z5VBihBQm+qUSGMyRIREVE/ZttVCIsuzr5GYJkBEVmxjkWgzYjNiugYoiuuRFy940GnYsdSO132j4epVA9AD7O3lagQx2SJiIioX7E45uraj4gswLjLPgRnq6sEUgyOobN4GNznAevSMDvKs73H/gMIkyXyicbGRrmJiIiCQgNjvX25HGuOxi0JosvFZIn6rKmpCUlJSXjhhReYNBERKYh6RS3MsZmIcMwtsi+pY3I8xVYOUzEQO8Ex7du1e0VHe4/9BxAmS+QTx48fR3NzM26//XYmTUREChJfZJ+DpEotdyyp41yqJwGVOVb7Mj0AoItFxSzHThYpZnt7d/01cdAMoAneXDogBClt6YCmpiZMmjQJ1dXV+Oabb7Bp0yYUFRUhPT0dGRkZuPHGG+VTiIiIQgYrS+RTo0ePxnPPPYe///3vuHjxIm6//Xa8+OKLrDQREVHIYrJEfuFMmv72t7/h3//+N5MmIiIKWUyWyK/GjBnDpImIiEIakyUKCCZNREQUqjjBOwQpeYK3t44dO4aCggIUFRUhIyMD6enpipoIvm/fPrmJqE8mT54sNxH5VHmqCgnFzlf6y9+3rSEP2ugKGL0+vxwGVSbi3Paj63eEEKKlpUWMHj1aUGhob28XY8aMkZt7rampSUycOFFu7rWzZ88KnU4nN3vl6NGjYuXKlWLs2LHihRdeEI2NjXKXoFi9erUAwIOHT469e/fKP2JEPmQVRh0EUswdTaV6AeiFW4v3en2uWeihEcZ6ub3/4DAcBZU8PBcXF4cXX3wRZ8+elbsSEVFXGnaisEbapy3RBGu9AZoG+8vOm+E62lIN0ua5npvkuvdxbaLr7K8yOBar7P8GAYBKpZLbiQKKSRMR0eXx2CjXjToqHuqo7jbDdXQqBgxCQNQboSnORF5DF5vkOvrUrgDyYuwLU9q3UqlEQkweBsJOcSohhACAW265BcePH5fjpEAnT55EQkICKioq5FCvBHPO0qXIc5oyMjJwww03yN38Jjs7G2vWrHG93rt3r0ecqCf79u3r9PPDOUvkN2UGqJ6Og7XavlmuzJarRUS1EcKR/JSnqpAZY4UZCYgoSnOc5zbvyGKAajpgFiZocrVd94lyn9tkgGkgzFkSQogHH3xQfP755x5jdKRMf/nLX0RaWprc3GtKmLN0KcGa0yTPWeKcE+oN/vxQQNUbhaaLOUbmFAhNjlVYczQe85k82nVGYbW3dsw7cpuz1G0f4f6+A2jO0owZM1BSUuKZSZEi7dixA9OnT5eb+yUOzxERXULUbKTppH3aygxIKNbDuMKXm+FqEKezoHCXY85TN8N//ZErWVqwYAHeeustWCwWzx6kKB999BG+/vrrAZMsOclJk3OdJiZNRERqLK+2wliZ4JrE7RxGi0cPm+F2p9tNctVYXm2f86RSqezzoLoZ+ut33MtM27dvF/fcc49obm52byaFOHr0qIiKihIff/yxHLosoTAM1x3n8Ny4ceP8MjzHYRTqC/78EPUvHksHJCUlYfbs2Zg8ebJPJ+tS33388cd44IEHsGrVKtx///1yeMBxVpo+/fRTVpqIiMivOq2ztGzZMixfvhwzZszAwoULsW/fPjQ3N8vdKAAuXLiA9957DykpKXjiiSeQn5+PlJQUuduA5p40/fjjj0yaiIjI51xLB3TljTfeQFlZGSorK5kwBcHw4cNxxx13YObMmXjkkUfkcJ8peemAy3Xs2DG88sorOH78OHbs2CGHvdbV0gF89Ju8xZ8fov6lx2SJ+rf+mCwBQGNjI6ZOnYqqqio55DX+Y0d9wZ8fov6l0zAcERERhTob8mI6tjbxlfJU318zFDBZIiIiIi/YYKmU2wYGJktERET9WjkMKi0Mqc7NdLXIa+hoz8s1dNGucu0fZ99Mtxy23ARk1gCWrARHv4GDyRJ5jU+YERGFKgsqY8wQQsCcYkHms84FJy3IrDY4NsYFMmd1vzGueoUZRh2gyTH33z3gusFkibyybds2jB07FitXrmTSREQUgpxbnGhi3Dco0cC4yr7BrnpWGjQ1FeA+Hp0xWSKvzJ07F2q1GmvXrkVkZCRWr17NpImIiAYEJksDnBACra2tXh3PPPMMrrrqKpw/fx45OTmIiorCmjVr0NTUJF+WiIhCQlcb42oQpwMq62wAbNhZxFpTt+sstbS0oLCwEKWlpTh06BDa29vlLuRnYWFhrkUpU1NT5XCfnTt3DsnJyairq5ND3WpqasKFCxdcr4cNG4aEhAR89dVXXGeJyEEJPz8//PAD3njjDbz77rs4fPgwurnVkx8NGTIEd955J2bPno2kpCQ57Gc25MVEoDDVitoVFhhUCUCpgCnRPmE7otoIUQQYVAmo1GlgqbHYh+Tqa7E8ytEny96mTwFKYIQoikd5qgoJxR39Bgx5szghhDCZTOKWW24RS5YsEfv375fDFCAtLS1iz549Ii0tTWi1WvHee+/JXQKqpKRE/OxnPxMAxNChQ8WNN94oXnjhBXH06NGAb6Tbk2+//VbceuutcnOvcCNU6otg//xs2bJF3HzzzSIrK0t88cUXcpgC5OLFi+L9998Xjz76qLj99tt9tgm675iFHhD6UrmdZJ2G4V5++WUUFBTgo48+wrp163DXXXfJXShABg8ejClTpmDLli3YsmULVqxYga1bt8rdAmbNmjW4cOECRowYgZUrV8JqteLpp5/G8OHD5a5EFCQrV67EX//6V/zjH//A2rVrcfvtt8tdKECGDh2Khx56CMXFxVi7di1+97vf4a233pK7UQjwSJZMJhPef/997Nu3D//xH//hHqIgu/vuu/Hhhx/CaDTio48+ksN+98477+Cbb77BypUr8a9//QsrV67ENddcI3cjoiDKz8/HoUOHUF5ejjFjxshhCqKpU6figw8+QGZmJj7//HM5HCTxMAn70Bz1zJUs/fvf/0ZWVhY2b97s2YMUY9SoUcjPz0dWVpYc8ruZM2fi5MmTWLVqFZMkIgU6ffo0nnvuORQWFsohUoioqChs3LgRTz31lBwihXMlS1u2bIFer0dU1ECasRV6Jk2ahPHjx2PXrl1yyO+YJBH5R01NDVpaWuTmXikoKMBjjz2Gm266SQ6RgiQmJmLo0KHYs2ePHCIFcyVLu3fvxty5cz2jpEhJSUkoK3OsQ09EIS8sLAxqtRobN25Ec3OzHPbKO++8A4PBIDeTAs2ZMwdms1luJgVzJUsWiwVxcXGeUVKku+++G5WVA3Q3Q6J+SKPR4N5778WiRYsQGRmJDRs29Cppam1txalTp6BW21doJmW76667eA8PMYMAoK2tDYMGdXowjhRq5MiRXD2bqJ/Jzs6GSqXC8ePHsXjxYqjVarz22mteJU3fffcdRowYITeTQvEeHnoGwbGKMxERBc+ECROQnJzsen3y5Ek8/vjjGDt2LNatW+dV0kRE/sFyEhGRQjz33HOdqvxnzpzBE088gYiICLz66qtMmoiCgMkSEZFCREZGdvugzYkTJ7BkyRKo1WqsX7+eSRNRADFZIiLyszVr1mDKlCleHfX19fLpHk6ePImlS5di7NixePXVV3Hx4kW5CxH5GJMlIiI/27dvn9fH//7v/8qnd+nMmTNYsmQJwsPDsWnTJs49JfIjJktERCHsqquuwpAhQ+RmIvIhJktERH4wefLkyzruvPNO+VJd0mg02LZtGxoaGjB//nyoVCq5CxH5CJMlIiIfy87Oxt69ey/ruNSWUxqNBtu3b8fhw4eRnJzc6ek5IvI9/pYRESnEkSNHsG3bNrkZADB+/HiYTCbU1NQgKSmJlSSiAGKyRESkEKtWrUJ7e7tHW1RUFN58803U1tZCr9ezkkQUBPytIyJSAIvF4lFVCg8Px9atW2GxWDBv3jyEhYV59CeiwGGyRESkANnZ2RBCYNy4cdi8eTPq6+sxf/58DB48WO5KRAHGZImIKMgsFgv279+P119/HfX19fj973/PJIlIQZgsEREFmRACDQ0NyMjIwBVXXCGHiSjIlJMslRmgUqlch6FM7hBs5TC4fT5trk3u0O81NTXJTUTkA1qttp8vLOm8fxpQ7t7ckAetSgVVqkdrj2y52kv0L4dBpUVeg9xOgfR///d/clNIU0SyZMvVQjUdMAsBIQSEMAPTlZUwlacmoDLHav989UYgK0JRn8/ftm/fjjFjxmDlypVMmojoMmig0VXC4pbE2HYVwuLehfqF/Px8jBw5Ei+99FK/SZoUkCzZsLPIAn2pCfGutniY6q0waOzVm/LUjoqO65tJmQGqmDzkOWMxebC5qlMd3ypsudqOc53fRsoMUMUYYIhxttmQF+P2HjF5kOtG8UUCtSvU9hdRs5Gmkzr0c8nJyQgPD8fatWsRERGB1atXKzppunDhQqc9t3pzEJHvpaXGonCX8+5qw84iQJ+icevhXsF3q0K53dtXVrt1d1am5P4UVAsXLsSIESOQnZ3t+ncj5JMmIYRoaWkRo0ePFkFRbxQaaISxXg44mYW51PlnqzDqIPSlQohSvQAcfxZmoQcEUsyuPpocq72PziisXZ7r9p71ZmF2vb9Z6Hv8PM7PrBdmuT1A2tvbxZgxY0Rra2tAj23btolrr71WABDDhg0T119/vcjOzhYNDQ1Cp9PJHzNovv32WzFq1CgBwGfH3r175bchUoxvv/1WUb+DnTnuq6VGoXHek+vtfzbnaDrfu4UQ1hyN4/5tv7/b7/X2Pvb+nvdqq+s6XtzDg6yxsVHExMR0usf2pyM/P19cc801AoC48sorxU033SRycnLEhQsX5L+OkKASQojW1lao1WocO3ZMzqUCoBwGVSbi6muxvIdV/stTVUgotv9ZXypggsExdGdCPGzIi4lAxYsCpkR738wYK8xIQESWVORNMUPMMbmd62S/RmYNAGhg7PbzePd5/UkIgeuvvx7XXnutHPK77777DhcuXHC9HjZsGKZNm4a6ujpUV7t/5QuexsZG6HQ6nD59Wg5dtrfffhu//e1v5WYiRWhsbMSUKVMU8zvYmfO+aQZmJQC7ajF7lxYJMNvv09VGiCJ43lsb8qCNroCxFEhwu1/bcrX2/qss0EZnSsN4epiFAaYg36Mv5ezZs5gwYQKGDRsmh/qV77//Ht9//73r9ZVXXon09HSsW7fOo19IEMGuLLlXfNw5q0L1RqGB89uGXB1yVnc8r2FOsffv+KYh8Ti3qypVN99KglxRcnJWlgKtpKRE/OxnPxMAxNChQ8UNN9wgXnjhBXH06FFFfav1R2UpPz9ffhsixQiZylK9vQKkyTELo67jdZcVIef9Vrpfu/p3ez/u4R6uEI2NjeLWW2+Vm/uV/Px8cfXVVws4Kks///nPxSuvvCJ++uknuWtIUMCcJTVmp2pQMt19vLkchukl0L+4HPZZQnoYV6iBhp0orHE79RLUE2KB4kzH/CX7vKRun2LTGfF8IoAyE0rkGBzfcmbJ1aiBZc2aNbhw4QJGjBiBlStXwmaz4emnn8bw4cPlrkE3fPjwThuU9ubIzMyUL0lEPqCelQYUZaKwJhYaj8qPBnE6i2tOk21XISy6OGgSDdCjBKYyuOa4AgCiNIhFCTId93RbrrbL+aYUeEIIPPfcc/jpp58watQoPP/88/j666+xdOnS0F0aQwS9smRnzdF4fJPvqDQ5xqgBAZ1RGB1VI28qS52u66wyyZUl55wnQCDF2EWly+0zdPkZAysYlaWdO3eK4cOHizVr1ojvv//eI3b27FlFfav99ttv+/ytbfPmzR7/rw8cOCB3IVKMUKosec47cq8sOfs5f+86V/8BjdCnuPV3jDx49mdlKdgKCwvF1VdfLXJyckK2kiRTwJwl6i3nlghHjx6VQ371ww8/4JprrpGb0dTUhEmTJilmvkRjYyOmTp2KqqoqOeS1LVu2YMGCBa7XBw4cwC9/+UuPPkRKofw5S+Tu7Nmz+PWvf92ne5TStbS0hG4VqQsKGIajUNFVokREfVdTU4OWlha5mShk9adECUyWiIiCLywsDGq1Ghs3bkRzc7McJqIgY7JERBRkGo0G9957LxYtWoTIyEhs2LCBSRORgjBZIgqAtrY2HgE6QlV2djZUKhWOHz+OxYsXQ61W47XXXmPSRKQAnOAdgoI1wbs7nODds1OnTuGRRx6BzWaDSqWSw+QjbW1tuOuuu/DWW28hLCxMDocEvV6Pbdu2ebSNHDkSf/zjH7Fw4UIMHTrUI+bECd6hZSBM8O5vmCyFICZLPVNasgQAS5cuRWRkJBYvXiyHyIcWL14MjUaDxx57TA6FhCNHjmD8+PFob2+XQ7j55pvx5JNPIiMjo1PSxGQptDBZCj0chiMKgIyMDGzatIlDKn6Wnp6OTZs2hexwXGRkJObOnSs3AwBOnDiBJUuWQK1WY/369fxZIgogJktEAaDRaPDAAw+goKBADpEPxcTE4P7778emTZvkUEDt3r0bkydPvqyjvr5evpyHkydPYunSpRg7dixeffVVXLx4Ue5CRL4mFLKCN3kvGCt494QreHuntrZWTJw4UVy8eFEOkQ8dOnRI3HbbbaK1tVUOBczGjRs7rfjvr2PUqFHi+eefFxMnTpQ/BilUf1/Buz9iZYkoQFhdCoyYmBjcd999Qa8uBcpVV12FIUOGyM1E5ENMlogCiHOXAiM9PR0FBQVBm7skP/X4i1/8ApMmTfLq8PZBAo1Gg23btqGhoQHz58/v9J5E5DtMlogCiNWlwAh2dUkI4fF6y5Yt2Ldvn1dHdHS0x7kyjUaD7du34/Dhw0hOTsagQbyNE/kbf8uIAsz5xBarS/4V7OrS5Thy5EindZacxo8fD5PJhJqaGiQlJbGSRBRATJaIAkyr1bK6FADBri5djlWrVnVaYykqKgpvvvkmamtrodfrWUkiCoJB6GJ8nYj8y1n1YHXJv0KpumSxWDyqSuHh4di6dSssFgvmzZvX46rkvIcT+dcgOHa8lr/NkHKdPn0aN954o9xMIUSr1WLq1KmsLvlZKFWXsrOzXavzb968GfX19Zg/fz4GDx4sd+3k+uuvR1NTk9xMCsV7eOhx1XO1Wi2++OILzygp0meffYa4uDi5mUIMq0uBEQrVJYvFgv379+P1119HfX09fv/733uVJDmFhYXh5ptvxpEjR+QQKdD+/ft5Dw8xrmRp5syZ3U4sJGXZsWMHEhMT5WYKMawuBUYoVJeEEGhoaEBGRgauuOIKOeyVmTNnwmQyyc2kQG+//TYSEhLkZlIwV7K0YMEC7NixA3V1dZ49SFH27NkDm82GGTNmyCG/Y5nf91hdCgylV5e0Wm2fF5ZMT0/H66+/jpMnT8ohUpBdu3ahvb0dkydPlkOkYK5kaciQITAajViwYAFaW1s9e5EifPPNN1i4cCFycnLkkN/t2LEDY8aMwZ/+9CecO3dODtNlYnUpMGJiYnDvvfcqurrUVzfddBOys7ORlpYmh0gh6urq8Pjjj+Pll1+WQ6RwHs+gJicnY8aMGZg8eTJqamrcQxRkn3zyCR588EE888wzQflGkpSUhHHjxuHll1+GWq1GdnY2kyYfcVY9fvrpJzlEPpSRkaHo6pIvpKen484778RDDz0Eq9UqhymI/vu//xsPPfQQNmzYwPlKIajTgh2ZmZlYsmQJpk2bhscffxyffPIJWlpa5G4UAD/++CPef/99zJs3D3/4wx+wYcMGpKamyt36pK2tzetj1apVuOqqq3D+/HmsXbsWERERePbZZ/Hdd9/Jl6VecFaX+nPVQwkGQnUJAFavXo1HH30U9913H5YtW4b9+/f36wRRyX744Qe8++67SE5Oxpo1a7Bjxw7Mnj1b7kYhQCXkdfndFBYWoqysDJWVlUyYguDKK6/EHXfcgZkzZyI5OVkO99m5c+cwZ84c/POf/5RD3fruu+/www8/uF4PGzYM06ZNQ11dHaqrqz36BktjYyOmTp2KqqoqOeS1LVu2YMGCBa7XBw4c8HrPrstRW1uLpKQkHDx4sM9zV6h71dXVSElJwcGDB3tct6ivXnvtNTz++OOu119++SVuu+02jz7+1tzcjK1bt8JsNqOqqooJUxBcffXVuPPOOzFr1iwmSSGux2SJ+rdz587hvvvu83rIdfv27Xjsscdw7tw5DB06FMOHD8eyZcuQkpKChIQEJkt9tHTpUkRGRmLx4sVyiHxo0aJFmDhxIhYuXCiHfEYJyRIR+U6nYTii7qxZswYXLlzAiBEj8Mwzz+Bf//oXnnnmGVx99dVyV7oMnLsUGM69+VhpISJvMVkir+zatQvHjh1zJUl/+tOfcM0118jdqA84dykwbr31Vtx77718ApGIvMZkibwya9YsnDhxAqtXr2aS5EesLgUGq0tE1BtMlshr1157rdxEPqbVavHrX/+a1SU/Y3WJiHqDyRKRwjjXA2J1yb9YXSIibzFZIlIYVpcCg9UlIvIWkyUiBfJ9dcmGvBgVVCrnoUVeg9zH/2y5WqhSy12fx1Am9wgsVpeIyBvdrrPU2trqWpTyyy+/RHt7u9yF/OyKK65wLUr56KOPyuE+6+06S91pamrCpEmTFLHOktVqxbp163DmzBls375dDnstGOssyZYsWYLo6GgsWrRIDvWaLVeLiKI0WKuXQ+18nRULszAhXu7sR+WpKiTADFEUyHftmT/WXeI6S0T9jOjCtm3bxOjRo8Uf/vAH8fe//120t7fLXSgAmpubxYcffijmz58vdDqdeP/99+UufdLU1CQmTpwoN/fa2bNnhU6nk5sD6siRIyIrK0tERUWJ3Nxc8f3338tdemXz5s0CgOs4cOCA3KXXzGazWL9+vbh48aIc6tLhw4eFTqcTzc3NcqjXzCkQSDHLzS7mlI7/Vk2OVQghhDVHI5BiFEadI5ZitrcBAtALsxBC1BuFxu3vyX6uVRh1EPoUvatdXyqEKHV/7ehT2vn9nW2BUlVVJW677TbR2toqhy7bxo0bPX5+vvzyS7kLEYWQTsNwOTk5yM/Px//8z/9g/fr1+NWvfgWVSiV3owAYMmQIpk6diq1bt2LTpk144okn8MYbb8jdBjSr1Yonn3wSDz/8MG666SZUVFQgMzNTkcsbPPzwwzAajVCr1Vi/fj2am5vlLh6cc5d8MacmvsgMfXGCYwjOgHK3mC1Xa6/2CAEhzIjNSugYoisuBHYJiHojNMUJjn5m6FECUxlgs2hgFsJ+bqkelqKdsDlOLYEBQghYczQoeToPtkQTzCkAUswwJbp9gDIDEor19uvUG1E53fPz+RvnLhHRpXgkSyUlJSgvL8e+ffswYcIE9xAF2a9+9St8+OGHyMnJwZ49e+TwgBNKSZJTWFgY1qxZg5MnT2Lp0qWupOnixYtyV5eMjAxs2rTJB3OX4mFyJDXWnEokqFRQxeTBBsBSbQFciVQCSmBB4S5HyqNLw+woAFEaxEKDtFlqABrE6exhdWI81A150KpUUE0v8XhHTYzG3mdCrEe7zFZXCaQY7MOBUctRG+ChQXDuEhFdgitZunjxIrKysrB582ZWkhTq5z//OfLz85GVlSWHBgw5STp48KDikyR3KSkpUKvVAOBKmsLDw5GXl9dl0uTL6pKTekWtvTpUU4idjgqSJsfqqCzZj9oV9s94KeWpKqiiK2B0VJZCFatLRNQTV7K0efNmJCcnIzo62rMHKcrkyZMRFRWFd955Rw71a90lSaG2UObgwYOxatUqj7bTp08jMzMTarUar7zySqekyVn1uPzqkuNJuFR5cCsWmih7BciStdIx9FUOg6p3T6lpcp5HPIDytz0rS95ST4gFik3292/IgzZIT+o5V0/nwyxEJHMlS7t374ZeH7rfDAeSpKQklJX14l+zEOaeJN14440hmyS5S01N7fJLyalTp7Bs2bJOlaaJEyf2sbqkxvJq9zlLKqhUmYirtw93qVfUwpxSYh+aUyWgMsfqOaeoB/Fz9LBkRUClUsEUY4SmpgIWuZMbTYwGKE7wTMYSTR1Dg9GZQI4Zy6Pc4gFy66234p577uH6VkTUiWvpgFtuuQXHjx+X46RAp06dwm9+8xtUVlbKoV5R8tIBVqsVBQUF+Otf/4r09HRkZGQENEGSlw7Iz8/36Ty+Dz74AC+99JLc7GHUqFHIysrCY489hiNHjiA5ORkHDx7EkCFD5K7kI4cOHcK8efNQUlKC06dPy2Gv7d69G+vWrXO9PnToEGJiYjz6EFHoUAkhRFtbG8LDw3Hs2DE5TgokhMC4ceNw9OhROdQrSkyWgp0kOcnJUjCNHDkSTz31FI4cOYIJEyb4ZN0l6t6iRYtQWVmJzz77TA5dNq6zRBTaBsHxjy9RMFmtVjz11FN4+OGHccMNN+DgwYNYsWJFUBIlpTlz5gyWLVvmelK1paVF7kI+NGnSpD5VlbrCh2aIQlundZaIAolJ0qVFR0djy5YtiI+Px5QpU3DFFVfIXciH9u7di1GjRsnNfcIvpEShTSWEEK2trVCr1RyGCxH9YRhOKcNt3Tl58iS++uorudlnvJmzNGHCBKxatQpJSUmora2FwWDAwYMHMXjwYFcf+7YlHVOqNTlWrx/797uGPGijK2Dsad0ktz6aXC0iqo1B3QqlqqoK8+fPR0lJCU6dOiWHL9sdd9yB4cOHy81EFCqEEKKlpUWMHj1aWtyblKq9vV2MGTNGbu61YGx3cuTIEfHkk0+KqKgokZOTI86fPy936ffa2tpEVFSUx3YY7kdkZKQoLi4WbW1trnMWL14sNmzY4HEd+1YjGmGsd38d+O1CulWq79gWpTve9AmghQsXivz8fLmZiAY4DsNRQMjDbV988cWAHW4rKipCQ0PnhYQiIyPx5ptv4quvvsKjjz6KQYPsv541NTX4+OOPkZGR4XmCpQIWx1pJgHP1a+F67L881blMgAraXOcmJI41l1QqqFINMDjWNLLlaqFKzXOLldvbpO1Rurqm/VwDDM5lCVLL7es1TS8BUIKE1HLP93WtHu7Zx34d1zt1XM/1/uUwqLQwpDo/l2/XY6qqqsI//vGPzn/PRDTgMVkiv7LZbHjqqafw0EMPeSRJ1113ndx1QGhtbcWzzz7r0RYeHo7CwkLU1dVh3rx5CAsL84gXFBQgPT3dY/gNsK9P1LE+kudCkt3t92bLTUAmjLAKATEH8FhG8lL7wHVzTfu5gMGxt5umOBN5DfEwleoB6GEuigcaLNDscq4Q7lw9XOrjYkNejH29J9f2LI6tWQALKmPsn8GcYkHms/JCm5fP+ffMydhEJGOyRH7hTJIefPBBj4nbAzVJcioqKoLNZv9nf+zYsSgoKMA///lP/Nd//VfnZKinqpJDfJEjAak3onJ6R7Wl6/3ePsHOIgs0qbOhBoBEAzyWob3EPnBdX9O5h1wcNHCe24WoeMRHOatLCZ5JWicWVNQ43x9Qz0rzWOwydoK93bn3nC9UVVVh//793f49E9HAxmSJfIpJUvfa2tqQnZ2N0aNH47XXXkNDQwMWLFjQ49Nt3VaVZI4hOHNKRwLTeb+3MfJZvdb5ml5OJi8zQKWKQMWLjsqSHA8yVpWIqCdMlsgnfvrpJyZJl/Dee+8hKysLR44cwcKFC3tMkuCoKu3bt6/baod9TlHHfCKn2AnqbvZ7U2N2qgaWop32Ia0y0yUqPJ66vqbcqwc6I55P9OZ9NYjTdSR9tl2FsDgrV37AqhIRXQqTJfKJ8PBwJkmXMG3aNCxatMjr7UoKCgqQkZHRbVXJc083+5EZY9/Xrbv93tQrzDAiExEqFVRvo1cVnu6u2S1NHDTOCd6JBuhrnO8bB6POggqL1MfFvpddrGPPuYisWJirl9uHDv2AVSUiuhSusxSClLbOEgCcP3+eCZIP1dTUQK/Xo6Kiottkqc/KDFBNB8w9rYPUzznXVTp48CCTJSLqFitL5BNMlHzrUlWly9WxHIAKqukl0JcO3EQJrCoRkZeYLBEpjHOuUnp6uhzqM/WKWo8J2j0Oo/VznKtERN5iskSkMM6q0qUmgFPfsKpERN5STrJUZugYHujtUzYB4bkCsfI+H/UH/qwqUQdWlYioNxSRLNlytY6Jph0r/GK6shISW24CMmMdqxeX6lEyvfMj20R9xapSYLCqRES9oYBkyYadRRZpomk8TPVWGDT2dVbc96NyrStTZoAqJg95zlhMHmyu6lTHnlEeE1qdjyeXGaCKMcAQ42zrat8qT+oVtZ67oftx3RcamFhVCgxWlYiot4KfLDXsRGGNBnFy5hGlRnyUGkA5MMdZcbLCqLPvUwUAqMlExRznXlOZiHjb4OjjWNCuzICIojT7PljCCmNlQke1qqYScbuEPQHqct8qt8/i4kiqppdA/6L/1n3xlvtE3cs9SDlYVQoMVpWIqLeCnyx1t5eUSzziE53VpQhkeiwJpIchEa79q/Rz4gGooXFc0FZXCTgXwnOcW/K2c/DMfbd2b/etUmN5tVDEMOH58+cxZsyYPh06nQ46nWPjLwoqVpUCo6qqCp999hmrSkTUK8FPlhxbG1Q4d8l0cgyz2RryoHWsTGyvGkn9LiXFuUu64/DY3dyh1/tW2ZOzyjp5sC5wrrvuOnzzzTd9Ok6cOIHt27fLl6YgYFUpMJx/z6wqEVFvKCBZsu9X5TlhuhwGj6EuPYwr1I4hO7dTL0E9IRYoznTMX7JXjrS53SQ4l9i3ypar7TjXMXTo3BWdqC9YVQoMVpWI6HIpIFmyT5625lS67XGVAJQ6FsyLmo00nWM/qllAWkovKjqJJlhzgMxoxzBcrLnrXdK727fKjXqFGWlF9r2qVNGZiC2txXLnMB5RH7CqFBisKhHR5eLecCFI+GhvOAq+w4cPY+7cuTh48CCTJT+qqqrC7373O1RUVDBZIqJeU0RliWig2rRpE6tKAcCqEhH1BZMloiA5fPgw5yoFAOcqEVFfMVkiChJWlQKDVSUi6ismS0RBwKpSYLCqRES+wGSJKAg2bdqE9PR0VpX8jFUlIvIFJktEAeasKrHa4V+sKhGRrzBZIgowVpUCg1UlIvIVJktEAcSqUmCwqkREvsRkiSiAWFUKDFaViMiXmCwRBQirSoHBqhIR+RqTJaIAKSgoYFUpAFhVIiJfY7JEFACHDx/G3r17We3wM2dVietXEZEvMVkiCoCCggIsWLAAgwcPhhCCh58OZ1Vp0CDe2ojId1RCCNHa2gq1Wo1jx47JcVIgIQTGjRuHo0ePyiFSoMbGRvznf/4nGhoaODTkR+3t7bjnnnuwY8cOJktE5FMqIYRoa2tDeHg4k6UQwWSJiIgocAYBQFhYGNrb2+UYKdTp06dxww03yM1ERETkB65atVarxcGDBz2jpEifffYZ4uLi5GYiIiLyA1eyNGPGDJSUlHhGSZF27NiBxMREuZmIiIj8QCWEEADQ3NyMyMhI7NmzB+PHj5f7kULs3bsXWVlZ+Pzzz+UQERER+YGrsjR06FDk5uZiwYIFaGtr8+xFinDixAksXLgQOTk5coiIiIj8xOP52rlz52LatGmYPHkyamtr3UMUZH/729/wwAMP4I9//COmTJkih4mIiMhPXMNw7t566y1kZmZixowZSEpKwt13342wsDC5G/nZxYsX8emnn6KkpAQVFRUwGo148MEH5W5ERETkR10mS3As8FZYWIiysjJUVlZyaC4Ihg4dijvuuAMzZ86EXq+Xw0RERBQA3SZLRERERMS94YiIiIh6xGSJiIiIqAf/D2PDMom9T6ZIAAAAAElFTkSuQmCC;" vertex="1" parent="40">
                    <mxGeometry x="90" y="216.39" width="175.15" height="56.39" as="geometry"/>
                </mxCell>
                <mxCell id="52" value="" style="shape=image;verticalLabelPosition=bottom;labelBackgroundColor=default;verticalAlign=top;aspect=fixed;imageAspect=0;image=data:image/png,iVBORw0KGgoAAAANSUhEUgAAAjAAAADICAYAAAD2r9syAAAAAXNSR0IArs4c6QAAAARnQU1BAACxjwv8YQUAAAAJcEhZcwAADsMAAA7DAcdvqGQAADeGSURBVHhe7d1/WNRVvgfw9wD+7l7Nfri1mgxiyxdBg9V+t/6obndBTO1RbEbomgrij9RE7G6bmT+qhSHNu1qgtC0+A1l7NaGhe61Wrb257r2ACjIWI9PVylLAyvY+GuC5f8x8h5kDCML85v16nnkeOefMMA/K18+8z/meoxFCCBAREREFkBC5gYiIiMjfsYAhIiKigMMChoiIiAIOCxgiIiIKOCxgiIiIKOCwgCEiIqKAwwKGiIiIAg4LGCIiIgo4LGCIiIgo4LCAISIiooDDAoaIiIgCDgsYIiIiCjgsYIiIiCjgaNo7jfrKlSsoKChAaWkpKisr0dLSIg8hD+vXrx8mTJiA6dOnQ6fTyd0UIOrr6/HYY4/BYrFAo9HI3eQmV65cwX333Yfdu3cjJISfy4h6gzYFzNtvv43MzEw8+uijSE5Oxj333IPQ0FDnIeQFly5dwieffIKioiJUVFTAYDDg4YcflodRAFi+fDkiIyOxdOlSuYvcaOnSpYiNjcWiRYvkLiIKQi4FTE5ODkpKSpCXl4fo6GjXkeQzf/nLX5CWloY1a9bgiSeekLvJz504cQKPP/44ysvL0adPH7mb3OTYsWP4l3/5F5SXlzOFIeoFHL/lxcXFeO+993Dw4EEWL37m/vvvx4cffoiXXnoJBw4ckLvJz40ZMwaTJ09GXl6e3EVuNG7cONx7773Iz8+Xu4goCGmEEOLy5csYNWoU/vznP+P222+Xx5CfOHDgALKysvDf//3fchf5OaYw3qGmMBUVFVxzRBTkQgBgx44dSE5OZvHi5yZPnoyIiAi8++67chf5OaYw3qGmMPw5EwW/EADYt28f73QJEMnJySgtLZWbKQCkpaUhPz8fTU1Nche5UVpaGvLy8tDODZZEFERCAKCmpga//OUv5T7yQ/feey8qKirkZgoATGG8gykMUe8Q0tLSwhX7AWTYsGFoaGiQmylAMIXxDqYwRMEvhL/gRN4zZswYTJo0iemAhzGFIQp+jF6IvCw9PZ0pjBcwhSEKbixgiLyMKYx3MIUhCm4sYIh8gCmMdzCFIQpeLGCIfIApjHcwhSEKXixgiHyEKYx3MIUhCk4sYIh8hCmMdzCFIQpOLGCIfIgpjHcwhSEKPixgiHxITWF4grJnMYUhCj4sYIh8LD09HXl5eUxhPIwpDFFwYQFD5GNMYbyDKQxRcGEBQ+QH1HSAKYxnqWdRMYUhCnwsYIj8QExMDFMYLxg3bhzuuecepjBEQYAFDJGfYArjHUxhiIKDfxQwpXpoNBrHQ18qD/AXZdBropFrkduJeo4pjHcwhSEKDj4vYKw50dBMA0xCQAgBIUzAND8sYiy5iNYkokhuJ3IjpjDewRSGKPD5uICxYk+hGboSIxIcbQkw1tZBr1gBAGWprcmMRqNHGeyJTWwuctW+2FxYHSlOa0JizYlufW5qma2xVA9NrB76WLXNitxYp+8Rmwvbd3ZWBv0MwFRrgCJ3EbkRUxjvYApDFPh8W8BY9qCgWkG8XBVEapEQqQVQBsxSk5k6GGKKYFSTmepMVMyyJTa66kxEvKO3jzGjYK8VKNUjonA+6tTnVia2pjrVlYjfKyAKEwCLGcre1vRHV12APW2miBJgrFoFrdxM5AFqCtPc3Cx3dZNUpPtoGtSaE+3yocHXKStTGKLA5tsCJlJBnNzmIgEJSWoKE4HMauc+HfRJAKAgPgbQzUoAoIVif0HryUqgOhMRmtbnFr1jT2EQByXS/sfIBCREqhf4wJgi+v777zF8+PAePW699VbMmTNHfmnyA2oK4650wJqTiEwY7MW8QF02kDnanmZ6kbnKbP+TFquqBIxJ0gAvYwpDFNh8W8BAQXyMGRXqdU1lnyKyWnIRrdEgM7bOnq5I4zqTYrInK/ZHYetElUOpHhpNBCpetCcwcr8fGjx4MM6cOdOjR3V1NaqrXSpC8qCysjJs3boVly9flrva5c4UxlxlBuIUR4KoXV0DIVqnbZ2naaNzbBOotrQktzW5SS1zmpK1Fz/230/X59rTldTWhfn6UtvvWeIuALsSoS91TWCcv7+3UxmmMESBy8cFjBYzUxUUTXP+NFgG/bQi6F5Up2x0MKzW2qebnJ7aCW1UHLAr0x6V2y6Y6sW5jRgDNiYBKDUGRAIDwGk6oPsP8p5HHnkEBoMBWq0Wr776aqeFjDtTmIRCE3S7Eu1/767JizUnGolQC30T4rISW6eXdhUAewVErQHKrkT7OBN0sE3lWs1K6+L7Eh3MhXsc68eKoLenPQqKfpMLa5IRphTbhwqX5KVUj8RdOtvr1BpQ6XIt8DymMESBy8cFjO3TYF12JRId/7EmAiX2eDlyJubHFNn6ZgDzU4DKkx0UIbIkoz0q19imkOJMqFndziqWJL1tDY1GA8078TC0lwgR9VBoaCheeOEFnD17FitWrHAUMpcuXZKHOrgvhUmA0TF9ZP9dsy9WN1eZAUdxk4gi2NeQAUDMfMyMVKd6FcyfoXVM2QKANikBWjWFmeZa+iuxtoVt2qirTxJbT1YCKXpbGhS5CjVOyZC3MIUhCkw+L2DgiLRbp3paP6HZ5sqFEBBVq7CqUNiKkCSjUwTuOp+eoI6RX1edPnJ5Llwu7qJw1dXn5iNXoUbUYJW6foboGqSkpECrtf3bVAuZ8PBw5ObmtlvIuDOFUdl+J1wXqyvZdS6/f+0W+u0oS9VAM7oCBnsCE6iYwhAFJr8oYIh6g7CwMKxdu9al7dtvv0VmZia0Wi02b97cppBR04HupzD2BerqNgIOtoXsSqwCc9Zv7dM2ZdBf4zoUJXsjEgCUvdO9yVfbVK/RaU2Nb+6QYgpDFHhYwBB5UWpqKkaPHi0345tvvsHTTz/dJpGJiYnBxIkTe5AOaLGqynkNjAYaTSbia20ppHZ1DUwp9mlaTSIqs+s6TiAlCbN0MGdFQKPRwBhrgFJdgavNviqxin0Rr1NjkrF1Wmt0JpBt8knCOW7cONx99909+DkTkbdpmpqahFarxZkzZ+Q+8kNCCIwcORKnT5+Wu67JhQsX8MADD/BOpHacPXsWn332mdzsNvv378dLL70kN7sYNmwYsrKysHjxYlgsFuj1epSXlyMsLEweSm5y7NgxzJs3D0VFRfjmm2/k7m6bMGECBg0aJDcTUQ+xgAkw/ljAfP/99xg8eLDcHLB27tyJhQsXys0+cfPNN+OZZ56BxWJBdHQ0lixZIg8hN1q8eDGOHTuGTz/9VO7qtqNHj2LcuHFyMxH1EKeQqEcaGxsxe/Zs5OTk4Pvvv5e7qYfOnTuHp59+Gu+//z4OHDjAM5I8bPLkyfj222/l5h7hlgVEnsEChnrsiy++QENDA375y1+ykHGz0aNHY+fOnUhMTMSkSZPQp08feQi50aFDhzBs2DC5uUe4MJjIMziFFGD8bQqpsbEREydORFVVFaxWK/Ly8vCnP/0J6enpSEtLC8ipJXkK6bXXXkNUVJTLmJ7oyhqYqKgorF27FsnJyTCbzZgzZw7Ky8vRt29fxxhrTjQislqXzSrZdV2+BdrjLLmIHl0Bw9X2dXEao+REI6LK0P5u2V5y/PhxPPHEEygqKupRCrNv3z5s2bLF8fXx48cRGxvrMoaI3KCpqUkMHz5cUGC4cuWKGDFihNx8zRobG8WYMWPk5mvW0NAgYmJiXNrq6urEmjVrxKhRo0R2drb47rvvXPr93Y4dOwQAx+PIkSPykG5raWkRkZGRLq/v/Bg1apTYtWuXaGlpcTznqaeeEv/2b//m8jqi1iAUKMJQ6/w1hK7EdZjPlOgEoBMmud1ZV8Z40ZIlS8T27dvl5mu2bds2l7/To0ePykOIPMN+HZCvK51dF+qyFYGUa/hNrDUIxQ9+dzmFRG6n1Wrx8ssv44MPPuDUkqSwsBAWS9uNTkaNGoU333wTn332GebOnYuQENuv5okTJ/DnP/8ZaWlprk8wV8DscijpKtQ4bQLZ3vlGLqdSp+qht++50qVzjzp4Tdtz9dCrt2inljmOAwGKkOh0+rTjNu7YXFilMa0nVcOxH43r9y+DXhMNfar6vty7X8zx48fxX//1X0hPT5e7iAKMAkNt68aUjuM85GE9Yb76lgnewgKGPEYtZPbv34+GhgaMHz++Vxcyzc3NWL9+vUtbeHg4CgoKcPLkSTzxxBMIDQ116c/Pz0d6errL1BFg2z+ldf8W183nOjrfyOVU6llwPfers3OPOnhN23MBvf0sI2VXJnItCTCW6ADoYCpMACxmKHvVC6q6C7A0xsGK3FjbfjS2i28lEu3HHgBmVMba3oMpxYzM9fLmfN2Xn5+PtLQ0R+FIFCy0M+a77NHU+uFEPh/QKH0Q6Wi8/AHFd/jbSh4XERGBl19+Gf/5n//pUsj88MMP8tCgVlhYCKvVdsG47bbbkJ+fj88//xxPPvlku/u7dJi+2CUU2ouCWgMqp7WmEu2fb/Qx9hSaoaTOtB2SmqR3PXm9k3OP2n9N9cykeChQn9uOyAQkRKopTGInB6aaUVGtfv+2F9+4KFu7etaSO6jpS0c/Z6JAZt1bALP6O1qqR0RWnP0QVhPisiJaP/zsqkR8rf1DhrrhZLvjO/rw4X0sYMhr5EJGnVrqDYVMS0sL1q1bh+HDh2P79u2wWCxYuHDhVe8q6jB9kdmnj0wprUVF2/ONRsjPumZtX7OLC4ZL9dBoIlDxov3iKPf7mJq+yOkXUWAy2w8xtj0isgDD3lXQyoenIgF65wOS1Q8xTu1XHe8HWMCQ1/XGQub9999HVlYWTp06hYyMjKsWLuhC+mKLdVvXp6jiorQdnG+kxcxUBebCPbbpmFJjJ0mIq/ZfUx51FTEGbEzqyvdVEB/TWoi5fHr0gOPHj+Mvf/lLhz9nosDTugamLltxKkyCDwsY8pn2ChmDwRCUhczUqVOxdOnSztMUu87SF9czjGyPzFjbOUYdnW+kXW2CAZmI0GigeQfXlIR09JodUuKhqHPkSXroqtXvGw9DjBkVZmmMg+3spjj7GUsRWXEwVdk+PXqC+nNm+kLBSLu6Bqa4TETYf8dcDk9FGYy7Wqdl4TihvrX9quP9QXNzM2+jDiCBcBt1d506dUqsWbNGREZGipycHPH999/LQ7zCk7dRd8WJEydETEyMuHz5stzlPn52C7MvHDt2TIwbN040NzfLXT3C26jJZ+TtFYQQQpiEDnDcJl2XrTj+bSrZda1tMTqhi7H/u3W6pbq98Y7bta/l1msPCAkNDcWVK1fkuob81LfffosbbrhBbg4KzolMfX19UCcyV5OXl3fV9KW7nO8m0Ewrgq7kKpvM9QJMXyjoRK5CjaiRTnRPgFEIxyaR2tU1bdaxaVfXQFQZYayyr3FzWpzb3nh13Z0vN56EOoWkKAoqKirkPvJDhw8fRnx8vNwcVHpzIVNTU3PVtS894XwhEk57xvRGXPtCFPhCAODRRx9FUdHVl9aRf9i9ezeSknrH/zzOhcz58+d7RSHjqfSFXDF9IQp8IQCwcOFCvPXWW6itrZX7yY8cPHgQFosF06dPl7uCWkREBH73u98FfSHjyfSFWjF9IQoOIQDQv39/ZGdnY+HChRA8OdUvnT17FhkZGcjOzpa7eo2OCpmLFy/KQwMS0xfvYPpCFBwct1HrdDokJCRg0qRJOHnypOso8qlPP/0UDz30ELKysjBlyhS5u9eRC5n4+PiAL2SYvngH0xcKVs5nlbW3R1SXWXIRfU3Pt51T5s6zybrKZR+YrKwsZGRk4OGHH8by5cvx6aefMpHxkZ9++gkfffQRnnzySaSnp2Pz5s2YN2+ePKxXC6ZChumLdzB9oeBjO6aj9awyAVECJF5TEeLETw5q7AqNaKdCaW5uRkFBAUpLS3H06FHeZu0Dffr0wYQJEzB9+nTMnTtX7u6xCxcu4IEHHkB1dbXcdU0aGxsxceJEVFVVyV1eV1dXhy1btuDcuXN466235O4u27lzJxYuXOj4+siRI7jzzjtdxrhTTU0NkpOTUV5ezgLGg44fP47U1FSUl5d7tIDZvn07lixZ4vj66NGjGDdunMsYIrex5CJ6dAUMwnVbBKulDEACtJG2LRQismxliZJdh5rVWltbVRx0u4psu2OnmCAKAb16XlmKCXWxmY4xldl1qFltbu2HDiZhRALKoNdkIr5Wvn3bC+SNYah38MeN7Nzh/PnzYuzYsXLzNfH2RnZPPfWU2Lp1q9xMbrZkyRKxfft2udntuJEdeZNtEzqDsG8x15bLppW2Te10JeoGdfZ25w3wnMa7jBF1whAjb35nEHXCJHRtNs/zDh4lQORD6tqX9PR0uYvciGtfKFhpo9o9A97hqgcydnaSPJzGdHJSvC+wgCHyoby8PKSlpXHqyMO49oWClhLfbiFRlqpBdI7/nBztCSxgiHyEdx55R1VVFdMXCl6RMzE/RjoUtVSPxF06GFa780BG754U3xUsYKhLgm3TOH+gpi/9+vWTu8iN1Du8mL5QcNJiVVUdDJWJTmedwb7AFkCSEXXZld07Sd6Fd0+K7woWMNSpvXv34tZbb8ULL7wQkLco+yOmL97B9IV6By1WqQcxCgEh3ZHU3oGMtgMc1QIkAUb1EEingxpdx6jj5O/h9FwvYwFDnZoxYwZGjBiBjRs3YuTIkdiwYQMLmR7Kz89n+uIFTF+IghcLGOqS559/HoMGDcKFCxewadMmhIeHY9OmTfjxxx/lodSJmpoafPTRR0wFPIzpC1Fwa3cjOwCOjewqKyvR1NQkd5OHDRgwwLGR3Zw5c+TuHrtw4QJmzZqFzz//XO7q0HfffeeSvPTv3x9Tp07FyZMn/WIjOwCor6/Hgw8+iGPHjsldXebpjexWrFiBUaNGYdmyZXIXudHSpUsxZswYZGRkyF0e5Q8b2V2+fBlvvPEGTCYTjh07hpaWFnkIedh1112Hu+66CzNmzMDMmTPlbnIHeWOYt99+W4wcOVIsXrxYHDp0SPz000/yEPKCv//97+I//uM/RGpqqhg3bpz48MMP5SE91tzc3OVHcXGxuP766wUA0b9/fzFkyBDxwgsviFOnTnEju2tw4sQJERMTIy5duiR3kRsdP35cjBs3TjQ3N8tdHufrjez++Mc/iltvvVWsXLlSfPrppz75GZAQP/zwgygtLRXJycni7rvvFp9++qk8hHrIpYDJyckR9913n6iqqnJuJh87dOiQiIqKEn/84x/lLq+Jjo4WYWFhYsiQIeL5558XjY2NQnAn3mu2fPly7rrrBUuWLBHbtm2Tm73ClwXMunXrxMMPPyxOnTold5EPvf/++2LEiBHi3//93+UuD3HdNdddTCnuf82ecKyBeeutt7Bv3z4cPHgQMTExrjEN+dSvfvUrfPDBB9i0aRMOHjwod3vc7t278cUXX+CZZ57BqVOnsG7dOlx//fXyMOoE1754h7r2pbftbpyfn48jR45g//79iIiIkLvJh/75n/8Z+/fvx9KlS1FRUSF3BwgrzJVym2+FwH7ycWZmJnbs2IGwsDB5DPmB4cOH47XXXkNWVpbc5XHJyck4c+YMNmzYgKFDh8rd1EW888g71P11etOdR+fPn8e6detQUFAgd5GfiIqKwrZt2/DMM8/IXR5WBr0mGvrUaPs+MdHItbS25+bo22nXQF9qe7Y1Jxqa1DJYcxKRWQ2YsxLt43wvBAB27NiB5ORkREVFyf3kR6ZMmQKtVot9+/bJXR7HwqVnzGYz0xcvCMT0pbq6usc3SuTn52PRokW45ZZb5C7yIzNmzEBISIgPknQzKmNNEELAlGJG5np1kzozMqv0EEKgLhvInJGLjg4f0K42wRADKNkmn+z50p4QAHj33Xfx+OOPy33kh5KTk1Faai+NKWBw113vCMT0JTQ0FFqtFtu2bcPly5fl7i559913odfr5WbyQ7NmzYLJZJKbPU49PkCJdd78X4FhrW07On84nPFahcA+Nz9+/Hi5j/zQvffeG8BzqL0T0xfvCMT0BQAURcH999+PpUuXYtSoUfj9739/TYVMS0sLvv76a4waNUruIj90zz338BruJiEtLS0ICeF+doFi2LBhqK+vl5vJjzF98Q51jVEgpS+qdevWQaPR4KuvvsKyZcug1Wqxffv2LhUy3333Had4A4h/XcPbO5xRQXwMUHnSCsCKPYX+m8lompqahFarxZkzZ+Q+8kNCCIwcORKnT5+Wu3yisbEREydO5EZ2Hfjmm28we/ZsWK1WaDQauZvcpKWlBXfffTfefvttnxcw3d3ITqfTobi42KXt5ptvxr/+678iIyOjwwK4vr4ekydP9pvfQbq6hoYGTJkypUfXqM5ZkRsbgYLUOtSsNkOvSQRKBIxJtkW5EVUGiEJAr0lEZYwCc7XZNp1UazvTyJoTjYgsW5suBSiCAaIwAWWpGiTuah3nayxgAgwLmKvztwIG9v9cyTt8XbygBwXMqVOncPvtt+PKlStyF2699VasWbMG6enpbQoZFjCBxTsFTFeUuRQ2gYhzR0QeFhoayoeXHoFs1KhRHd5M8fXXX2P58uXQarV49dVXuzS1RBTsWMAQEbmRPFW4YMECTJo0qUuP2tpal+fKzp49ixUrVuC2227D1q1bcenSJXkIURclwCgCN30BCxgiIveSz8f9n//5Hxw6dKhLj7/97W8uz+3IuXPnsHz5coSHhyMvL6/N9yTqDVjAEBEFqIEDB6Jv375yM1GvwAKGiMiNfv7zn2PixIndenR1sbiiKCguLobFYsG8efPaTFsR9QYsYIiI3OjRRx/FwYMHu/UYPXq0/HIuFEXBW2+9hRMnTmDOnDncw4t6Nf7rJyLyA6dOnWqzD4zq9ttvh9FoRHV1NZKTk5m4ELGAISLyD2vXrm2zB0xkZCTefPNN1NTUQKfTMXEhcsLfBiIiHzObzS7pS3h4ON544w2YzWY88cQTAb/HDZEnsIAhIvKxdevWOXbZ3rFjB2prazFv3jyEhYXJQ4nIjgUMEZEPmc1mHD58GK+//jpqa2uxYMECFi5EXcAChojIh4QQsFgsSE9PR58+feRuIuqAfxQwpXpoNBrHQ18qD/C1Muid3l90ju348d7k4sWLchMRuUF0dHSQb0anXj/1KHNutuQiWqOBJtWl9aqsOdGdjC+DXhONXIvcTt7U1NQkN3mEzwsYa040NNMAkxAQQkAIEzDNv4qYstREVGbX2d5frQHIivCr9+dpe/fuxS233IL169ezkCGiblCgxFTC7FRYWPcWwOw8hILCG2+8gaFDh8JgMHi8kPFxAWPFnkIzdCVGJDjaEmCsrYNesaUcZamtyYejgi/VQxObi1y1LzYXVkeK01p9W3OiW5+rVu2lemhi9dDHqm1W5MY6fY/YXMj5SkKhQM1qre2LyJmYHyMNCHIzZszAiBEjsGHDBoSHh2Pjxo1+Xchcvny5zQZh1/L47LPPXF6Pe24Q9dz81DgU7FWvrlbsKQR0KYrTCOek2ymtcbq2/7bKabia4MjjyafmzZuHwYMH49lnn8WIESPwyiuveK6QaWpqEsOHDxc+UWsQChRhqJU7VCZhKlH/XCcMMRC6EiFEiU4A9j8Lk9ABAikmxxglu842JsYg6tp9rtP3rDUJk+P7m4Tuqu9Hfc86YZLbveTKlStixIgRcrPHFRUVicGDBwsAol+/fuKGG24QmzZtEqdPnxYxMTHycJ85f/68uOGGGwQAtz2OHDkifxsiv3H+/Hm/+h1sy35dLTEIRb0m19r+bMpW2l67hRB12Yr9+m27vtuu9bYxtvGu1+o6x+t04RruY/X19WLs2LFyc1DZvn27+Id/+AcBQAwYMEDccsstYvPmzeKnn36Sh/aIpqmpSWi1Wpw5c0aubbygDHpNJuJra7AqUu5rVZaqQeIu2591JQJG6O3TTkYkwIrc2AhUvGg7FrwsVYPM2DqYkIiILCmgTDFBzDI6PVdle43MagBQYOjw/XTt/XqSEAJDhgzBP/7jP8pdHvfdd9/hxx9/dHzdv39/TJ06FSdPnkRVlfNHI9+pr69HVFQUGhoa5K5ue++995CYmCg3E/mF+vp6TJ482W9+B9tSr5smYEYisLcGM/dGIxEm23W6ygBRCNdrqyUX0aMrYCgBEp2u19acaNv4tWZEj86UpqB0MAk9jD6+RnemoaEBUVFR6N+/v9wVVH744Qf88MMPjq8HDBiAtLQ0bNmyxWVcj/g0gXFORpyp6UmtQShQq3I5RVFTENfXMKXYxrdW5BKX57aX5nRQvfs4eVGpCUxzc7NXH8XFxeL6668XAET//v3FkCFDxLp164TFYvGrT3+eSGDeeOMN+dsQ+Y2ASWBqbUmJkm0ShpjWr9tNTtTrrXS9dozv8Hp8lWu4n6ivrxexsbFtrrHB9HjttdfEddddJ2BPYG666SaRnZ0tfvzxR/nH0SM+XgOjxcxUBUXTnOcvy6CfVgTdi6tgW3Wig2G1FrDsQUG101M7oY2KA3Zl2tfD2Na5dHj3UIwBG5MAlBpRJPfB/mlghpza+FZoaKhXHxs2bMDFixcxZMgQZGVl4dSpU3j++edx/fXXy2/N52688UYcOHCg24/MzEyX19Nq7eufiKhHtDPmA4WZKKiOg+KSkCiIjzE71shY9xbAHBMPJUkPHYpgLIVjzSQAIFJBHIqQab+mW3Oi212/6K80Gk2ba2wwPV588UX89NNPuPHGG/H888/DarVi9erVGDRokPyj6BnfJjA2ddmKyyfe1kTGPucJCMQYhMGernQlgWnzumoaIycw6hoaQCDF0E4i5PQe2n2P3uWLNTDFxcVi4MCB4tlnnxUNDQ0ufQ0NDX716e/8+fM9nl/esWOHy98118CQPwukBMZ1HYtzAqOOU3/v2qbkgCJ0KU7j7Qm96/jASGB6eo3yZ9u3bxcDBw4UmzZtcnviIvPxGhi6Vup246dPn5a7PKqxsRFDhw6Vm9HY2IiJEyf6zfx7fX09HnzwQRw7dkzu6rKdO3di4cKFjq+PHDmCO++802UMkb/w/zUw5KyhoQFTpkzp0TXK3/397393f9rSDh9PIVGgaK94IaKeq66u9txtpkQ+4I3iBSxgiIh8KzQ0FFqtFtu2bcPly5flbiLqAAsYIiIfUhQF999/P5YuXYpRo0bh97//PQsZoi5gAUNE5GPr1q2DRqPBV199hWXLlkGr1WL79u0sZIiuggUMEZGPRUVFYc6cOY6vz549iyVLluC2227Dli1bWMgQtYMFDBGRH9iwYQNCQlwvyefOncPKlSsRERGBrVu3spAhcsIChojID4waNQqPP/643AwA+Prrr7F8+XJotVq8+uqrLGSIWMAQEbnXvn37MGnSpG49amtr5ZdzcfbsWaxYsQK33XYbtm7dikuXLslDiHoNFjBERG701Vdf4dChQ916/O1vf5Nfrl3nzp3D8uXLER4ejry8PAgh5CFEQY8FDBFRgBo4cCD69u0rNxP1CixgiIjcSKPRuHw9fvx4TJw4sUuPrh5ZoSgKiouLYbFYMG/evDbfk6g3YAFDRORG8nTOzp07cfDgwS49Ro8e7fJcmaIoeOutt3DixAnMmTOnzV1LRL0J//UTEfmBU6dOobi4WG4GANx+++0wGo2orq5GcnIyExciADyNOsD46jTqjvA06qtrbGzEzJkzYbVa5S5yoytXruCee+7B22+/LXd53fbt27FkyRLH10ePHsW4ceNcxrRHr9ejqKjIpS0yMhK//e1vMXfuXISGhrr0qXgadWDpDadRe4umublZhIeHs4AJECxgrs7fChgAWLJkCaKiopCRkSF3kRstXboUcXFxSE9Pl7u8qjsFjNlsxpgxYxzTT+Hh4Vi7di1SUlIQFhYmD3fBAiawsIBxn5DQ0FBcuXJFbic/de7cOdxwww1yM/mxjIwM7Ny5EwAQFhbGh4ceixYtQl5envzjDwjr1q1zfDjZsWMHamtrMW/ePIR1UrwAwJAhQ9DY2Cg3k5/iNdx9QmBfGFZRUSH3kR86fPgw4uLi5GbyYzExMfjVr34VsP+5Boo77rgDd999d8D9nM1mMw4fPozXX38dtbW1WLBgQZcKF1VYWBh+9rOfcZoyQPz1r3/lNdxNQgDg0Ucf7XDxGPmX3bt3IykpSW4mP5eeno78/Hw0NzfLXeRGaWlpAVfACCFgsViQnp6OPn36yN1dMn36dBiNRrmZ/NA777yDxMREuZm6IQQAFixYgKKiIlgsFrmf/MihQ4fw+eefY8aMGXKXx128eFFuomvAFMY7AjGFiY6O7vFmdGlpadi+fTvOnz8vd5EfKS0txeXLlzFlyhS5i7ohBAAGDBiA7Oxsl4WL5F++/fZbZGRkIDs7W+7yuHfffRe33HIL1q9fz0KmB5jCeEcgpjA9NWzYMDz33HOYP3++3EV+wmKxYMmSJXj55ZflLuomxz4wer0ejzzyCCZNmoTPPvvMdRT51OHDh/HQQw8hMzMTDz74oNztcdOnT8eIESOwYcMGhIeHY+PGjSxkuoEpjHcEYgrjDhkZGRg7diwSEhJ4V6mf+eijj/BP//RPMBgMmDBhgtxN3eSykd0zzzyDtLQ0PPjgg1ixYgX++te/OneTFzU3N+PAgQNYsGABFixYgJycHDz55JPyMK9Zu3YtBg0ahMbGRmzcuBERERF48cUX8fe//10eSlfBFMY7emMKAwAbN27EY489hrvvvhtr1qxBeXm5PIS85PLly9i/fz9SUlKwZs0avPnmm5g9e7Y8jHpAI+R9rwE0NTWhoKAAJSUlOH78OG+z9oHQ0FBMmDAB06dPR2pqqtzdYxcuXMCcOXNw8uRJuatDjY2N+PHHHx1f9+/fH1OnTsXJkyf9Zg8Kf9wHRrZs2TIoioLFixfLXeRGixcvxrhx47y+L0x39oFxt4sXL+IPf/gD3nvvPZw4caLN8QbkeX379sVdd92FmTNnIjk5We4mdxDUKzU2Noro6GjR1NTUpUdRUZEYMmSIACD69+8vhgwZItatWydqa2tFTEyM/PI+c/78eTF27Fi5+Zrs2LFDAHA8jhw5Ig/pkaqqKjF27FjR1NQkd5EbVVZWiri4OLnZ47Zt2+by7+fo0aPyECJyA56F1ItpNJo2m4F19Ni0aRN+/PFHDBkyBFlZWbBYLHj++ecxdOhQ+WWpE+pamPz8fLmL3Ki3roUh6i1YwFCniouLYbVasWbNGlgsFrzwwgvcSbKH0tPTkZeXx7UwHpaWlsZCkShIsYChTj3++OM4ffo0Nm7cyMLFTZjCeMcdd9yBu+66iykMURBiAUNdwsLF/ZjCeAdTGKLgxAKGyEeYwngHUxii4MQChsiH1P1KmMJ4FlMYouDDAobIh2JjY5nCeAFTGKLg0+5GdgDwhz/8AaWlpaisrMTly5flbvKwQYMGOTay88TujRcuXMADDzyA6upqueuaNDY2YuLEiX6xkd2ZM2ewefNmfPXVV9i9e7fc3WWe3shOVlVVhblz56K8vBxhYWFyN7nJ0aNHMX/+fI/vTusPG9kR9QryxjB/+tOfhFarFYsWLRIHDhwQly5dkoeQF1y8eFGUlZWJuXPniri4OPHRRx/JQ3qksbFRjBkzRm6+Zg0NDT7fyO706dPi2WefFSNHjhSbNm0S9fX18pBr4umN7NqzdOlSsW3bNrm52+qyFQFAKNl1Lu2mFAhAEYZal2bvKdEJxBiE67vynoyMDPH666/LzW7FjeyIvMNlCumVV15Bbm4u9u3bh9deew2TJk1Cv379nIeQl1x33XX49a9/jV27dmHz5s3IyMjArl275GG92pkzZ/Dcc8/hgQcewMCBA1FeXo7f/OY3AXnHlEfWwsQoQJXZqaEMxl7+T4hrYYiCh6OA2b17N/bs2YODBw8iNjbWdRT51MSJE/Hhhx9i/fr1+Pjjj+XuXse5cBkwYEBAFy4qj6yFiZuP+ZVGlKlflxpRlKKDzmmINScaGo0GGo0G0TnW1rZUPfT2dk2q4xXaHQ9YkRtrH6uJRq4FQKkeGo3e/r1t/fpSx8vYWHIRrX4Px+vZx6bqW1/LjbgWhih4hADATz/9hFWrVmHHjh3o27evPIb8wIgRI/D6669j9erVclevEYyFizM1hWlpaZG7ukmBElcEo71wKHunCLpZ+tbuUj0isuJgEgJCmBCXFdFaZOwC9EJA1Bqg7Mp0FCXtjbfmJCITBtQJAVESh8wZuVBLm6uxmhX7awmIEh3MhXsczyuCHkLUYFWk9CQ3YApDFBxCAGDHjh2YPXs2FEWR+8mPPPjggxg5ciRKSkrkrqCmFi73339/UBYuKjWFcWc6kDBLh6J3yuzTRzrok1r7rCcrgRQ9EmwjoU8BKk/aS4iYeCgAEKkgrpPx5iozlNSZ0AJAkhGiapXtz53QJiVAq6Yw04pc+pRYz12L7rjjDtx5551u/TkTkfeFAMC+ffug0zkHy+SvkpOTe00BIxcuFRUVQVm4OFPTAbelMEl66HYZUVZqRJGj+PAPZakaaEZXwGBPYLwpPT2dKQxRgAsBgBMnTmD8+PFyH/mhe++9FxUVFXJzUOmNhYsqNjYWDzzwgBvTgQToU4qQ+ZvKNqmGNioO2KWukbEt8I2L6jg76Wi8Equ0Tv+oa1+UeCiohNkCwLIHBR3cra9kb0SCfXrLm5jCEAW+kJaWFoSEcD+7QPGzn/0M9fX1cnNQ6M2FizN3pzAJs3QwVwPzZ0jFSZIRddmVSNRooNEkojK7DkanKaY2OhivXV0DU1wmIuxTQboSIxIiZ2J+jBmZozXQzKhAXIz8Yvb3lRUBjUYDY6wBSnUFnO+Z8jSmMESBTdPU1CS0Wi3OnDkj95EfEkJg5MiROH36tNx1TfxpI7szZ84gPz8fhYWFSE9PR3p6uk+LFm9vZNeeZcuWQVEULF68WO4iN8rIyEBcXBzS0tLkrm7jRnZE3sHohXymNyUuZWVl2Lp1a5d3tXZ3CkPtU08EJ6LAwwKGvE4uXIL1riJnjzzyCAwGA7RaLV599dVOCxn3r4Wh9qhrYTiVRBR4WMCQ13RUuNx4443y0KATGhqKF154AWfPnsWKFSschcylS5fkoQ5MYbxD3X+HiAILCxjyuN5cuDhLSUmBVmtbSKsWMuHh4cjNzW23kGEK4x1xcXFMYYgCEAsY8hgWLq7CwsKwdu1al7Zvv/0WmZmZ0Gq12Lx5c5tCxhspTFlq63b+6qPNtv/XoCxVPRagDPoevpa3MIUhCjwsYMjtvvzySxYuHUhNTcXtt98uN+Obb77B008/jfDwcGzZssVRyHgthUkx2bb0tx8fUDmtu4WHFeZKuc3/MYUhCjy8jTrA+PNt1F9++SXy8vJQWFiItLQ0pKenB2TRIt9G/dprryEqKsplTE/s378fL730ktzsYtiwYcjKysLixYtRW1uLlJQUlJeXIzQ0VB7aY2WpGiTCBFHYuk+vNScaEVUGW5slF9GjM+17tOhgEkYkoAx6TSbis+OQmVUEQIGhtgYz90YjIsts/9qAitGJQIoORbtax3jifCN3qKysxIIFC1BUVISzZ8/K3V22b98+bNmyxfH18ePHeUAukSc0NTWJ4cOHCwoMV65cESNGjJCbr1ljY6MYM2aM3HzNGhoaxC9+8Qvx3HPPidtuu01s3LhRnD9/Xh4WUHbs2CEA+MXj5ptvFq+88opYtGiR2LZtm/xW3cKUAoEUk2tjiU4gxiDqhEnooAhDra25LluxjzUJHVqfV5et2MfXCUMMhJJd12ZMu9/HzyxatEjcd999bf4eevI4evSo/G2IyA04hUQ99vOf/xz9+vVDeXk5nn322YBMXfzVuXPn8PTTT+O9997Dhx9+6NG1MO2ymFEJ+466Go0tXXEcJ6DAsNaW2mhnzO9wJ13dLNsY+SgDfzRlyhR88803cnOPaDQauYmI3IAFDPXI0KFDsXv3bhYuHtKvXz+sXr0aU6dOxeTJkz0yhdQe68lKIE6xnyqtg0ldHyMEhDD61aGQ7vTxxx/j5ptvlpt7RAghNxGRG3ANTIDxtzUwwejs2bP47LPP5Ga3+eCDD/Diiy/KzS769u2LhQsX4plnnsHFixcxa9YslJeXo1+/fvLQHmuzBsa+5iWuRMCYVAa9/dyjmtVa29qYwvmoq1Lw23bbZ2JPbAQKUutQs9oMvSYRKBEwJknravxQVVUV5s6di+LiYpw7d07u7rYJEyZg0KBBcjMR9RTXwAQWf1sDQ9empaVFREZGtlknoT769esnli9fLr7++mvHc5YvXy62bt3q8jruZEpp+z50JU4Dag1CcfTphH1Fi9ABQolR7O2t62Rsr6cIQ61tjPparetn/NPSpUs9ts6IiNyPCUyAYQIT2N58803MmzdPbsZ1112HxYsXIzMzEzfddJOj3Ww2ezR96T5bMqOmK4FOTV/Ky8sRFhYmdxORH/KPNTClerdtouUZVuTG+vP7o0DQ3NyM9evXu7Rdd911ePbZZ/HFF1/gd7/7nUvxAgB5eXlIT0/3s+Il+OTn5yM9PZ3FC1EA8XkBY82JhmYanBYJmoBub6LlGdacRGTG2Tf6KtGhaJrefhcGUdcVFhbCarUC9sXP69evx5dffomNGze2e5Cl2WzGhx9+iLS0NLnLDyTAKIInffn444/99OdMRB3xcQFjxZ5CM3Qlznc1JMBYWwe9YrvQu25zbi8cSvXQxOYiV+2LzYXVkeJEI9dif/Wc6NbnptpLjlI9NLF66GPVNtd0RRObC9t3bqVdXeO68DAmHv5/Qyj5k5aWFqxbtw433XQTXn75ZZw+fRrPPfccBg8eLA91yMvLQ1paGtMXD2P6QhSYfFvAWPagoFpBvFwNRGqREKkFUAbMUpOZOhhiimBUk5nqTFTMsiU2uupMRLyjt48xo2CvFSjV2+6KUJ9bmdia6lRXIn6vsO8yaoaytzX90VUXYI+9AHJlL3SmFUH34ir77aVEXVNWVoaVK1fif//3f7FmzZpO70pR05f09HS5i9yI6QtR4PJtAROpIE5uc5GAhCQ1hYlApst6Ux30SQCgID5G3SxLC8X+gtaTlUB1JiI0rc8teked+ImDom5nHpmAhEg1hUlEkb25LS1WVfnHFNf333+PkSNH9ugxduxYKIpcOZKnJCUlYeXKlRgwYIDc1a4epy/SurKurN9yPYSxNcnsNksuou2pqTUnujUF9SNMX4gCl28LGCiIjzGjQt6+0z5FZLXkIlqjQWZsnT1dkcZ1xvmAOmFPXGSlemg0Eah40Z7AyP1t2AqmypPyRJP3DB48GKdOnerRw2q1ori4WH5p8gPuS1/kDeiutmbF+RDGBBiFG84sMrfuzNtmGtYPMH0hCmw+LmC0mJmqSItiy6B3mabRwbBaa59ucnpqJ7RRccCuTPunSFvCYvt02Y4YAzYmASg1tpvAWHOiW59rn/aaP8O3k0hhYWFueZD/yc/P71n60qky6KVUxpqTiMxqwJyViFxLawJjS05yW9eJpZY5rS1Tf2/bW0dm+z0GipCoPsd5HdrV1qZ1sBbN3Zi+EAU2Hxcwtk9mddmVSHRcUJ32loicifkxRba+GcD8lGtIPpKMqMuG/QyXCGTGmVCzup2iI0lvW0Oj0UDzTjwM7SRC2tUmzC+MsL2/0ZmIK3HDp1OidpjNZnzwwQduSF9gKx6cChV1gbs1JxNFajpZokPRb3KB1SYYYgAl29T23/auAmCvgKg1QNmVaNu1V5igg31NWrvryBJgLNHZUiDn5MWSi+hplTDUtq5Nc3w4UNem2de1/fYq0109VV1dzfSFKNBxJ97A4q6deMk/rVixQrz66qty87Ur0Tntmitx2lm3dcdd+RRp2866radMC5d2dbz8fJddeZ3eg2MXXscp1/ZnObc73q/82u7HXXeJAp/PExgisnFv+nIVkatQ49jTyHkqqJuueR2ZbzF9IQoOLGCI/ITn177YONZ0JRlt00LygO7oZB2ZgxIPxbFVgW0fKCXWLe+gy9Tdjbn2hSiwsYAh8gOeSV/kNTC2RbNt13QZkWDfgsC2iFd+nU50tI5MiYdiX8TrELkKNSVxna9N8xCmL0TBg4c5Bhh3HeZI/mXlypXQarV46qmn5C5yo2XLlkFRFCxevFjuIqIAwwSGyMfU9IWpgGcxfSEKLixgiHxMXfvSv39/uYvciGtfiIILCxgiH2L64h1MX4iCDwsYIh9i+uId6tlSTF+IggcLGCIfMZvN2L9/P1MBD1PTF/fe4UVEvsYChshH1LN4mL54lppyMX0hCi4sYIh8gOmLd1RXV+PQoUNMX4iCEAsYIh9g+uIdTF+IghcLGCIvO3nyJNMXL2D6QhTcWMAQeZm6HwnTF89i+kIU3EI0Go3cRkQewvTFO5i+EAW/kNDQUFy5ckVuJz917tw5DB06VG6mAMH0xTuYvhAFvxAAiIqKQmVlpdxHfujw4cOIj4+XmykAMH3xjurqahw8eJDpC1GQCwGARx99FMXFxXIf+aG3334bU6dOlZspADB98Q71Di+mL0TBTSOEEP/3f/+H0aNH4+OPP8aoUaPkMeQnPv74Y6xYsQIVFRVyF/m5kydP4rHHHkN5eTkLGA+qrq6GTqdDRUUFCxiiIBcCAAMHDsTLL7+MhQsXyv3kJ86dO4eMjAxkZ2fLXRQA1LN4WLx4FtMXot7DcRt1SkoKHn74YUyePBm1tbWuo8injhw5goceeghPP/00HnroIbmb/Jy69oVrMjyLa1+IeheNEEI4NxiNRqxZswazZ8/GnDlzcOeddzp3k5dcuXIFn3zyCYxGIz755BO88sor+PWvfy0PowCwcuVKhIeHY/ny5XIXudFTTz2FX/ziF1iyZIncRURBqE0BAwCXL19GQUEBSkpKUFVVhXaGkIeFhIRg/PjxmDFjBp544gm5mwLE119/jdmzZ+PMmTPgnkue09LSgvHjx+Odd97h9BFRL9FuAUNE7tPU1CQ3kYf06dNHbiKiIMUChoiIiAIOz0IiIiKigMMChoiIiAIOCxgiIiIKOP8PJ87ldq7ZeEcAAAAASUVORK5CYII=;" vertex="1" parent="40">
                    <mxGeometry x="90" y="146.39" width="167.99" height="60" as="geometry"/>
                </mxCell>
            </root>
        </mxGraphModel>
    </diagram>
</mxfile>